0
SECTION
2
HEADER
9
$INSUNITS
70
4
9
$ACADVER
1
AC1014
9
$HANDSEED
5
FFFF
0
ENDSEC
0
SECTION
2
TABLES
0
TABLE
2
VPORT
5
8
100
AcDbSymbolTable
0
ENDTAB
0
TABLE
2
LTYPE
5
5
100
AcDbSymbolTable
0
LTYPE
5
14
100
AcDbSymbolTableRecord
100
AcDbLinetypeTableRecord
2
BYBLOCK
70
0
0
LTYPE
5
15
100
AcDbSymbolTableRecord
100
AcDbLinetypeTableRecord
2
BYLAYER
70
0
0
ENDTAB
0
TABLE
2
LAYER
5
2
100
AcDbSymbolTable
70
2
0
LAYER
5
50
100
AcDbSymbolTableRecord
100
AcDbLayerTableRecord
2
0
70
0
6
CONTINUOUS
0
ENDTAB
0
TABLE
2
STYLE
5
3
100
AcDbSymbolTable
70
1
0
STYLE
5
11
100
AcDbSymbolTableRecord
100
AcDbTextStyleTableRecord
2
STANDARD
70
0
0
ENDTAB
0
TABLE
2
VIEW
5
6
100
AcDbSymbolTable
70
0
0
ENDTAB
0
TABLE
2
UCS
5
7
100
AcDbSymbolTable
70
0
0
ENDTAB
0
TABLE
2
APPID
5
9
100
AcDbSymbolTable
70
2
0
APPID
5
12
100
AcDbSymbolTableRecord
100
AcDbRegAppTableRecord
2
ACAD
70
0
0
ENDTAB
0
TABLE
2
DIMSTYLE
5
A
100
AcDbSymbolTable
70
1
0
ENDTAB
0
TABLE
2
BLOCK_RECORD
5
1
100
AcDbSymbolTable
70
1
0
BLOCK_RECORD
5
1F
100
AcDbSymbolTableRecord
100
AcDbBlockTableRecord
2
*MODEL_SPACE
0
BLOCK_RECORD
5
1B
100
AcDbSymbolTableRecord
100
AcDbBlockTableRecord
2
*PAPER_SPACE
0
ENDTAB
0
ENDSEC
0
SECTION
2
BLOCKS
0
BLOCK
5
20
100
AcDbEntity
100
AcDbBlockBegin
2
*MODEL_SPACE
0
ENDBLK
5
21
100
AcDbEntity
100
AcDbBlockEnd
0
BLOCK
5
1C
100
AcDbEntity
100
AcDbBlockBegin
2
*PAPER_SPACE
0
ENDBLK
5
1D
100
AcDbEntity
100
AcDbBlockEnd
0
ENDSEC
0
SECTION
2
ENTITIES
0
CIRCLE
5
100
100
AcDbEntity
8
0
100
AcDbCircle
10
45.100000000000016
20
73.850000000000009
30
0
40
0.75000000000000178
210
0
220
-0
230
1
0
CIRCLE
5
101
100
AcDbEntity
8
0
100
AcDbCircle
10
41.885333203575371
20
73.850000000000009
30
0
40
0.75000000000000178
210
0
220
-0
230
1
0
CIRCLE
5
102
100
AcDbEntity
8
0
100
AcDbCircle
10
48.31466679642466
20
73.850000000000009
30
0
40
0.75000000000000178
210
0
220
-0
230
1
0
ARC
5
103
100
AcDbEntity
8
0
100
AcDbCircle
10
51.064666796424646
20
73.849999999999994
30
0
40
0.99999999999999645
210
0
220
-0
230
1
100
AcDbArc
50
90
51
270
0
ARC
5
104
100
AcDbEntity
8
0
100
AcDbCircle
10
39.135333203575364
20
73.850000000000009
30
0
40
0.99999999999999645
210
-0
220
0
230
1
100
AcDbArc
50
-90
51
90
0
LWPOLYLINE
5
105
100
AcDbEntity
8
0
100
AcDbPolyline
90
4
70
1
43
0.0
10
48.366666666666674
20
51.399999999999991
10
46.100000000000001
20
51.400000000000013
42
0.99999999999999989
10
46.100000000000001
20
50.399999999999991
10
48.366666666666674
20
50.399999999999991
42
0.99999999999999989
0
LWPOLYLINE
5
106
100
AcDbEntity
8
0
100
AcDbPolyline
90
4
70
1
43
0.0
10
43.100000000000009
20
51.399999999999977
10
40.833333333333357
20
51.399999999999999
42
0.99999999999999989
10
40.833333333333385
20
50.400000000000006
10
43.10000000000003
20
50.399999999999984
42
0.99999999999999989
0
ARC
5
107
100
AcDbEntity
8
0
100
AcDbCircle
10
37.200000000000003
20
51.900000000000006
30
0
40
0.49999999999999822
210
0
220
0
230
1
100
AcDbArc
50
180
51
270
0
LINE
5
108
100
AcDbEntity
8
0
100
AcDbLine
10
37.833333333333364
20
51.400000000000006
30
0
11
37.200000000000003
21
51.400000000000006
31
0
0
CIRCLE
5
109
100
AcDbEntity
8
0
100
AcDbCircle
10
-25.810000000000002
20
46.190000000000005
30
0
40
1.6999999999999993
210
0
220
-0
230
1
0
CIRCLE
5
110
100
AcDbEntity
8
0
100
AcDbCircle
10
26.039999999999999
20
47.480000000000004
30
0
40
1.6999999999999993
210
0
220
-0
230
1
0
LWPOLYLINE
5
111
100
AcDbEntity
8
0
100
AcDbPolyline
90
4
70
1
43
0.0
10
21.599999999999994
20
51.399999999999999
42
-0.99999999999999989
10
21.600000000000001
20
50.399999999999999
10
19.333333333333336
20
50.399999999999999
42
-0.99999999999999989
10
19.333333333333332
20
51.399999999999999
0
LWPOLYLINE
5
112
100
AcDbEntity
8
0
100
AcDbPolyline
90
4
70
1
43
0.0
10
3.3666666666666618
20
54.899999999999991
42
-0.99999999999999989
10
3.3666666666666751
20
53.899999999999999
10
1.1000000000000014
20
53.899999999999949
42
-0.99999999999999989
10
1.0999999999999979
20
54.900000000000006
0
CIRCLE
5
113
100
AcDbEntity
8
0
100
AcDbCircle
10
-22
20
66.600000000000009
30
0
40
2.1999999999999997
210
0
220
-0
230
1
0
CIRCLE
5
114
100
AcDbEntity
8
0
100
AcDbCircle
10
-41.460000000000001
20
12.779999999999989
30
0
40
1.6999999999999993
210
0
220
-0
230
1
0
CIRCLE
5
115
100
AcDbEntity
8
0
100
AcDbCircle
10
-62.960000000000001
20
12.779999999999996
30
0
40
1.6999999999999993
210
0
220
-0
230
1
0
CIRCLE
5
116
100
AcDbEntity
8
0
100
AcDbCircle
10
0
20
0
30
0
40
2.2000000000000002
210
0
220
-0
230
1
0
CIRCLE
5
117
100
AcDbEntity
8
0
100
AcDbCircle
10
0
20
22.949999999999999
30
0
40
2.2000000000000002
210
0
220
-0
230
1
0
CIRCLE
5
118
100
AcDbEntity
8
0
100
AcDbCircle
10
19.690000000000005
20
21.990000000000013
30
0
40
1.6999999999999993
210
0
220
-0
230
1
0
LWPOLYLINE
5
119
100
AcDbEntity
8
0
100
AcDbPolyline
90
4
70
1
43
0.0
10
-1.8999999999999866
20
54.899999999999977
42
-0.99999999999999989
10
-1.9000000000000117
20
53.899999999999977
10
-4.1666666666666643
20
53.900000000000084
42
-0.99999999999999989
10
-4.1666666666666679
20
54.899999999999991
0
LWPOLYLINE
5
120
100
AcDbEntity
8
0
100
AcDbPolyline
90
4
70
1
43
0.0
10
-23.900000000000027
20
-10.250000000000002
42
-0.99999999999999989
10
-23.900000000000027
20
-11.249999999999998
10
-26.166666666666689
20
-11.25
42
-0.99999999999999989
10
-26.166666666666689
20
-10.250000000000004
0
CIRCLE
5
121
100
AcDbEntity
8
0
100
AcDbCircle
10
-19.460000000000008
20
-20.119999999999997
30
0
40
1.7000000000000015
210
0
220
-0
230
1
0
LWPOLYLINE
5
122
100
AcDbEntity
8
0
100
AcDbPolyline
90
4
70
1
43
0.0
10
-40.633333333333297
20
39.649999999999991
42
-0.99999999999999989
10
-40.633333333333319
20
38.649999999999999
10
-42.899999999999956
20
38.649999999999984
42
-0.99999999999999989
10
-42.899999999999956
20
39.649999999999977
0
LWPOLYLINE
5
123
100
AcDbEntity
8
0
100
AcDbPolyline
90
4
70
1
43
0.0
10
-62.133333333333326
20
39.649999999999984
42
-0.99999999999999989
10
-62.133333333333326
20
38.649999999999991
10
-64.400000000000006
20
38.649999999999977
42
-0.99999999999999989
10
-64.399999999999991
20
39.649999999999991
0
CIRCLE
5
124
100
AcDbEntity
8
0
100
AcDbCircle
10
41.190000000000005
20
-0.95999999999999197
30
0
40
1.6999999999999993
210
0
220
-0
230
1
0
LWPOLYLINE
5
125
100
AcDbEntity
8
0
100
AcDbPolyline
90
4
70
1
43
0.0
10
-67.399999999999991
20
39.650000000000006
42
-0.99999999999999989
10
-67.400000000000034
20
38.649999999999999
10
-69.6666666666667
20
38.649999999999999
42
-0.99999999999999989
10
-69.666666666666671
20
39.649999999999991
0
LWPOLYLINE
5
126
100
AcDbEntity
8
0
100
AcDbPolyline
90
4
70
1
43
0.0
10
-18.633333333333315
20
52.649999999999999
42
-0.99999999999999989
10
-18.63333333333328
20
51.649999999999999
10
-20.899999999999928
20
51.650000000000027
42
-0.99999999999999989
10
-20.899999999999945
20
52.650000000000006
0
LWPOLYLINE
5
127
100
AcDbEntity
8
0
100
AcDbPolyline
90
4
70
1
43
0.0
10
-18.633333333333329
20
-10.249999999999995
42
-0.99999999999999989
10
-18.633333333333375
20
-11.249999999999996
10
-20.900000000000027
20
-11.250000000000018
42
-0.99999999999999989
10
-20.900000000000027
20
-10.249999999999995
0
CIRCLE
5
128
100
AcDbEntity
8
0
100
AcDbCircle
10
-3.8100000000000001
20
2.54
30
0
40
1.7000000000000002
210
0
220
-0
230
1
0
CIRCLE
5
129
100
AcDbEntity
8
0
100
AcDbCircle
10
-19.460000000000008
20
48.730000000000004
30
0
40
1.7000000000000015
210
0
220
-0
230
1
0
CIRCLE
5
130
100
AcDbEntity
8
0
100
AcDbCircle
10
-25.810000000000002
20
23.240000000000009
30
0
40
1.6999999999999993
210
0
220
-0
230
1
0
LWPOLYLINE
5
131
100
AcDbEntity
8
0
100
AcDbPolyline
90
4
70
1
43
0.0
10
3.3666666666666596
20
-8.0000000000000036
42
-0.99999999999999989
10
3.3666666666666627
20
-9.0000000000000018
10
1.1000000000000001
20
-9
42
-0.99999999999999989
10
1.0999999999999988
20
-8.0000000000000036
0
CIRCLE
5
132
100
AcDbEntity
8
0
100
AcDbCircle
10
47.540000000000006
20
24.530000000000012
30
0
40
1.6999999999999993
210
0
220
-0
230
1
0
CIRCLE
5
133
100
AcDbEntity
8
0
100
AcDbCircle
10
-22
20
20.699999999999999
30
0
40
2.1999999999999997
210
0
220
-0
230
1
0
CIRCLE
5
134
100
AcDbEntity
8
0
100
AcDbCircle
10
41.190000000000005
20
67.890000000000001
30
0
40
1.6999999999999993
210
0
220
-0
230
1
0
CIRCLE
5
135
100
AcDbEntity
8
0
100
AcDbCircle
10
-19.460000000000008
20
2.8300000000000001
30
0
40
1.7000000000000015
210
0
220
-0
230
1
0
CIRCLE
5
136
100
AcDbEntity
8
0
100
AcDbCircle
10
26.039999999999999
20
70.430000000000007
30
0
40
1.6999999999999993
210
0
220
-0
230
1
0
CIRCLE
5
137
100
AcDbEntity
8
0
100
AcDbCircle
10
0
20
45.899999999999999
30
0
40
2.2000000000000002
210
0
220
-0
230
1
0
CIRCLE
5
138
100
AcDbEntity
8
0
100
AcDbCircle
10
-69.309999999999988
20
56.139999999999972
30
0
40
1.6999999999999993
210
0
220
-0
230
1
0
CIRCLE
5
139
100
AcDbEntity
8
0
100
AcDbCircle
10
-25.810000000000002
20
0.28999999999999998
30
0
40
1.6999999999999993
210
0
220
-0
230
1
0
CIRCLE
5
140
100
AcDbEntity
8
0
100
AcDbCircle
10
-69.309999999999974
20
-12.709999999999972
30
0
40
1.6999999999999993
210
0
220
-0
230
1
0
CIRCLE
5
141
100
AcDbEntity
8
0
100
AcDbCircle
10
23.5
20
65.349999999999994
30
0
40
2.200000000000002
210
0
220
-0
230
1
0
CIRCLE
5
142
100
AcDbEntity
8
0
100
AcDbCircle
10
-47.809999999999974
20
33.190000000000005
30
0
40
1.6999999999999993
210
0
220
-0
230
1
0
CIRCLE
5
143
100
AcDbEntity
8
0
100
AcDbCircle
10
23.5
20
19.450000000000014
30
0
40
2.200000000000002
210
0
220
-0
230
1
0
CIRCLE
5
144
100
AcDbEntity
8
0
100
AcDbCircle
10
-43.999999999999993
20
7.7000000000000126
30
0
40
2.1999999999999975
210
0
220
-0
230
1
0
CIRCLE
5
145
100
AcDbEntity
8
0
100
AcDbCircle
10
45.000000000000007
20
-3.4999999999999898
30
0
40
2.1999999999999975
210
0
220
-0
230
1
0
LWPOLYLINE
5
146
100
AcDbEntity
8
0
100
AcDbPolyline
90
4
70
1
43
0.0
10
-23.899999999999977
20
52.649999999999977
42
-0.99999999999999989
10
-23.899999999999963
20
51.649999999999984
10
-26.166666666666632
20
51.650000000000006
42
-0.99999999999999989
10
-26.166666666666639
20
52.649999999999991
0
CIRCLE
5
147
100
AcDbEntity
8
0
100
AcDbCircle
10
-22
20
-25.199999999999996
30
0
40
2.1999999999999997
210
0
220
-0
230
1
0
CIRCLE
5
148
100
AcDbEntity
8
0
100
AcDbCircle
10
23.5
20
42.400000000000006
30
0
40
2.200000000000002
210
0
220
-0
230
1
0
LWPOLYLINE
5
149
100
AcDbEntity
8
0
100
AcDbPolyline
90
4
70
1
43
0.0
10
26.866666666666688
20
51.399999999999991
42
-0.99999999999999989
10
26.86666666666666
20
50.399999999999991
10
24.600000000000009
20
50.400000000000006
42
-0.99999999999999989
10
24.600000000000001
20
51.399999999999991
0
CIRCLE
5
150
100
AcDbEntity
8
0
100
AcDbCircle
10
2.54
20
28.030000000000001
30
0
40
1.7000000000000004
210
0
220
-0
230
1
0
CIRCLE
5
151
100
AcDbEntity
8
0
100
AcDbCircle
10
-43.999999999999972
20
53.600000000000037
30
0
40
2.1999999999999975
210
0
220
-0
230
1
0
CIRCLE
5
152
100
AcDbEntity
8
0
100
AcDbCircle
10
19.689999999999998
20
67.890000000000015
30
0
40
1.7000000000000015
210
0
220
-0
230
1
0
CIRCLE
5
153
100
AcDbEntity
8
0
100
AcDbCircle
10
2.54
20
73.929999999999993
30
0
40
1.7000000000000004
210
0
220
-0
230
1
0
CIRCLE
5
154
100
AcDbEntity
8
0
100
AcDbCircle
10
45.000000000000007
20
42.400000000000006
30
0
40
2.1999999999999975
210
0
220
-0
230
1
0
CIRCLE
5
155
100
AcDbEntity
8
0
100
AcDbCircle
10
-41.459999999999951
20
58.680000000000021
30
0
40
1.6999999999999993
210
0
220
-0
230
1
0
CIRCLE
5
156
100
AcDbEntity
8
0
100
AcDbCircle
10
-65.5
20
53.599999999999987
30
0
40
2.1999999999999975
210
0
220
-0
230
1
0
CIRCLE
5
157
100
AcDbEntity
8
0
100
AcDbCircle
10
41.190000000000005
20
44.940000000000005
30
0
40
1.6999999999999993
210
0
220
-0
230
1
0
CIRCLE
5
158
100
AcDbEntity
8
0
100
AcDbCircle
10
-69.310000000000002
20
10.239999999999995
30
0
40
1.6999999999999993
210
0
220
-0
230
1
0
CIRCLE
5
159
100
AcDbEntity
8
0
100
AcDbCircle
10
-69.310000000000002
20
33.189999999999998
30
0
40
1.6999999999999993
210
0
220
-0
230
1
0
CIRCLE
5
160
100
AcDbEntity
8
0
100
AcDbCircle
10
-19.460000000000008
20
25.780000000000001
30
0
40
1.7000000000000015
210
0
220
-0
230
1
0
CIRCLE
5
161
100
AcDbEntity
8
0
100
AcDbCircle
10
-41.460000000000001
20
-10.170000000000011
30
0
40
1.6999999999999993
210
0
220
-0
230
1
0
CIRCLE
5
162
100
AcDbEntity
8
0
100
AcDbCircle
10
45.000000000000007
20
65.349999999999994
30
0
40
2.1999999999999975
210
0
220
-0
230
1
0
CIRCLE
5
163
100
AcDbEntity
8
0
100
AcDbCircle
10
41.190000000000005
20
21.990000000000009
30
0
40
1.6999999999999993
210
0
220
-0
230
1
0
CIRCLE
5
164
100
AcDbEntity
8
0
100
AcDbCircle
10
-47.809999999999981
20
10.23999999999999
30
0
40
1.6999999999999993
210
0
220
-0
230
1
0
CIRCLE
5
165
100
AcDbEntity
8
0
100
AcDbCircle
10
-22
20
-2.25
30
0
40
2.1999999999999997
210
0
220
-0
230
1
0
CIRCLE
5
166
100
AcDbEntity
8
0
100
AcDbCircle
10
-41.459999999999994
20
35.72999999999999
30
0
40
1.6999999999999993
210
0
220
-0
230
1
0
CIRCLE
5
167
100
AcDbEntity
8
0
100
AcDbCircle
10
-43.999999999999972
20
30.649999999999991
30
0
40
2.1999999999999975
210
0
220
-0
230
1
0
CIRCLE
5
168
100
AcDbEntity
8
0
100
AcDbCircle
10
-47.810000000000002
20
-12.709999999999981
30
0
40
1.6999999999999993
210
0
220
-0
230
1
0
CIRCLE
5
169
100
AcDbEntity
8
0
100
AcDbCircle
10
-62.959999999999987
20
58.679999999999986
30
0
40
1.6999999999999993
210
0
220
-0
230
1
0
CIRCLE
5
170
100
AcDbEntity
8
0
100
AcDbCircle
10
-65.5
20
7.6999999999999957
30
0
40
2.1999999999999975
210
0
220
-0
230
1
0
CIRCLE
5
171
100
AcDbEntity
8
0
100
AcDbCircle
10
47.540000000000006
20
70.430000000000007
30
0
40
1.6999999999999993
210
0
220
-0
230
1
0
CIRCLE
5
172
100
AcDbEntity
8
0
100
AcDbCircle
10
-19.459999999999894
20
71.680000000000021
30
0
40
1.7000000000000015
210
0
220
-0
230
1
0
CIRCLE
5
173
100
AcDbEntity
8
0
100
AcDbCircle
10
-3.8100000000000001
20
48.439999999999998
30
0
40
1.7000000000000002
210
0
220
-0
230
1
0
CIRCLE
5
174
100
AcDbEntity
8
0
100
AcDbCircle
10
47.540000000000006
20
1.5800000000000081
30
0
40
1.6999999999999993
210
0
220
-0
230
1
0
CIRCLE
5
175
100
AcDbEntity
8
0
100
AcDbCircle
10
0
20
68.849999999999994
30
0
40
2.2000000000000002
210
0
220
-0
230
1
0
CIRCLE
5
176
100
AcDbEntity
8
0
100
AcDbCircle
10
-65.5
20
30.649999999999991
30
0
40
2.1999999999999975
210
0
220
-0
230
1
0
CIRCLE
5
177
100
AcDbEntity
8
0
100
AcDbCircle
10
26.039999999999999
20
1.5800000000000143
30
0
40
1.6999999999999993
210
0
220
-0
230
1
0
CIRCLE
5
178
100
AcDbEntity
8
0
100
AcDbCircle
10
2.54
20
5.0800000000000001
30
0
40
1.7000000000000004
210
0
220
-0
230
1
0
CIRCLE
5
179
100
AcDbEntity
8
0
100
AcDbCircle
10
-3.8100000000000001
20
-20.41
30
0
40
1.7000000000000002
210
0
220
-0
230
1
0
CIRCLE
5
180
100
AcDbEntity
8
0
100
AcDbCircle
10
2.54
20
50.979999999999997
30
0
40
1.7000000000000004
210
0
220
-0
230
1
0
CIRCLE
5
181
100
AcDbEntity
8
0
100
AcDbCircle
10
-3.8100000000000001
20
71.389999999999986
30
0
40
1.7000000000000002
210
0
220
-0
230
1
0
CIRCLE
5
182
100
AcDbEntity
8
0
100
AcDbCircle
10
19.690000000000005
20
-0.95999999999998586
30
0
40
1.6999999999999993
210
0
220
-0
230
1
0
CIRCLE
5
183
100
AcDbEntity
8
0
100
AcDbCircle
10
-25.809999999999896
20
69.140000000000029
30
0
40
1.6999999999999993
210
0
220
-0
230
1
0
CIRCLE
5
184
100
AcDbEntity
8
0
100
AcDbCircle
10
23.5
20
-3.4999999999999858
30
0
40
2.200000000000002
210
0
220
-0
230
1
0
CIRCLE
5
185
100
AcDbEntity
8
0
100
AcDbCircle
10
26.039999999999999
20
24.530000000000015
30
0
40
1.6999999999999993
210
0
220
-0
230
1
0
LWPOLYLINE
5
186
100
AcDbEntity
8
0
100
AcDbPolyline
90
4
70
1
43
0.0
10
-45.89999999999992
20
39.65000000000002
42
-0.99999999999999989
10
-45.899999999999991
20
38.65000000000002
10
-48.166666666666615
20
38.64999999999997
42
-0.99999999999999989
10
-48.166666666666629
20
39.649999999999991
0
CIRCLE
5
187
100
AcDbEntity
8
0
100
AcDbCircle
10
-22
20
43.650000000000006
30
0
40
2.1999999999999997
210
0
220
-0
230
1
0
CIRCLE
5
188
100
AcDbEntity
8
0
100
AcDbCircle
10
-62.959999999999987
20
-10.169999999999975
30
0
40
1.6999999999999993
210
0
220
-0
230
1
0
CIRCLE
5
189
100
AcDbEntity
8
0
100
AcDbCircle
10
-47.809999999999945
20
56.140000000000029
30
0
40
1.6999999999999993
210
0
220
-0
230
1
0
LWPOLYLINE
5
190
100
AcDbEntity
8
0
100
AcDbPolyline
90
4
70
1
43
0.0
10
-1.9000000000000012
20
-7.9999999999999973
42
-0.99999999999999989
10
-1.8999999999999999
20
-8.9999999999999982
10
-4.1666666666666687
20
-8.9999999999999982
42
-0.99999999999999989
10
-4.1666666666666687
20
-7.9999999999999973
0
CIRCLE
5
191
100
AcDbEntity
8
0
100
AcDbCircle
10
2.54
20
-17.869999999999997
30
0
40
1.7000000000000004
210
0
220
-0
230
1
0
CIRCLE
5
192
100
AcDbEntity
8
0
100
AcDbCircle
10
-3.8100000000000001
20
25.489999999999998
30
0
40
1.7000000000000002
210
0
220
-0
230
1
0
CIRCLE
5
193
100
AcDbEntity
8
0
100
AcDbCircle
10
0
20
-22.949999999999999
30
0
40
2.2000000000000002
210
0
220
-0
230
1
0
CIRCLE
5
194
100
AcDbEntity
8
0
100
AcDbCircle
10
19.690000000000005
20
44.940000000000005
30
0
40
1.6999999999999993
210
0
220
-0
230
1
0
CIRCLE
5
195
100
AcDbEntity
8
0
100
AcDbCircle
10
-44.000000000000021
20
-15.25
30
0
40
2.1999999999999975
210
0
220
-0
230
1
0
CIRCLE
5
196
100
AcDbEntity
8
0
100
AcDbCircle
10
45.000000000000007
20
19.45000000000001
30
0
40
2.1999999999999975
210
0
220
-0
230
1
0
CIRCLE
5
197
100
AcDbEntity
8
0
100
AcDbCircle
10
47.540000000000006
20
47.480000000000004
30
0
40
1.6999999999999993
210
0
220
-0
230
1
0
CIRCLE
5
198
100
AcDbEntity
8
0
100
AcDbCircle
10
-65.499999999999986
20
-15.249999999999996
30
0
40
2.1999999999999975
210
0
220
-0
230
1
0
CIRCLE
5
199
100
AcDbEntity
8
0
100
AcDbCircle
10
-62.960000000000001
20
35.72999999999999
30
0
40
1.6999999999999993
210
0
220
-0
230
1
0
CIRCLE
5
200
100
AcDbEntity
8
0
100
AcDbCircle
10
-25.810000000000002
20
-22.66
30
0
40
1.6999999999999993
210
0
220
-0
230
1
0
LINE
5
201
100
AcDbEntity
8
0
100
AcDbLine
10
36.70000000000001
20
72.350000000000009
30
0
11
36.70000000000001
21
51.900000000000006
31
0
0
ARC
5
202
100
AcDbEntity
8
0
100
AcDbCircle
10
37.200000000000003
20
72.350000000000009
30
0
40
0.49999999999999822
210
0
220
-0
230
1
100
AcDbArc
50
90
51
180
0
ARC
5
203
100
AcDbEntity
8
0
100
AcDbCircle
10
52.000000000000014
20
72.350000000000009
30
0
40
0.50000000000000711
210
0
220
-0
230
1
100
AcDbArc
50
0
51
90
0
LINE
5
204
100
AcDbEntity
8
0
100
AcDbLine
10
52.500000000000007
20
51.899999999999991
30
0
11
52.500000000000014
21
72.350000000000009
31
0
0
ARC
5
205
100
AcDbEntity
8
0
100
AcDbCircle
10
52.000000000000014
20
51.899999999999991
30
0
40
0.50000000000000711
210
-0
220
0
230
1
100
AcDbArc
50
-90
51
0
0
LINE
5
206
100
AcDbEntity
8
0
100
AcDbLine
10
51.366666666666688
20
51.399999999999991
30
0
11
52.000000000000014
21
51.399999999999991
31
0
0
ARC
5
207
100
AcDbEntity
8
0
100
AcDbCircle
10
51.366666666666688
20
50.899999999999999
30
0
40
0.49999999999998934
210
0
220
-0
230
1
100
AcDbArc
50
90
51
270.00000000000159
0
LINE
5
208
100
AcDbEntity
8
0
100
AcDbLine
10
52.000000000000014
20
50.399999999999991
30
0
11
51.366666666666703
21
50.399999999999999
31
0
0
ARC
5
209
100
AcDbEntity
8
0
100
AcDbCircle
10
52.000000000000014
20
49.899999999999991
30
0
40
0.50000000000000711
210
0
220
-0
230
1
100
AcDbArc
50
0
51
90
0
LINE
5
210
100
AcDbEntity
8
0
100
AcDbLine
10
52.500000000000014
20
49.899999999999991
30
0
11
52.500000000000007
21
-13.000000000000021
31
0
0
ARC
5
211
100
AcDbEntity
8
0
100
AcDbCircle
10
52.000000000000014
20
-10.499999999999989
30
0
40
0.49999999999999822
210
-0
220
0
230
1
100
AcDbArc
50
-90
51
0
0
ARC
5
212
100
AcDbEntity
8
0
100
AcDbCircle
10
37.200000000000003
20
-10.499999999999989
30
0
40
0.49999999999999822
210
0
220
0
230
1
100
AcDbArc
50
180
51
270
0
LINE
5
213
100
AcDbEntity
8
0
100
AcDbLine
10
36.70000000000001
20
27.32499998509882
30
0
11
36.70000000000001
21
-10.499999999999989
31
0
0
ARC
5
214
100
AcDbEntity
8
0
100
AcDbCircle
10
37.200000000000003
20
27.32499998509882
30
0
40
0.49999999999999822
210
0
220
-0
230
1
100
AcDbArc
50
90
51
180
0
LINE
5
215
100
AcDbEntity
8
0
100
AcDbLine
10
37.200000000000003
20
27.82499998509882
30
0
11
44.5
21
27.824999985098838
31
0
0
ARC
5
216
100
AcDbEntity
8
0
100
AcDbCircle
10
44.5
20
28.324999985098849
30
0
40
0.50000000000001155
210
0
220
0
230
1
100
AcDbArc
50
-90
51
1.7075472925031877e-06
0
ARC
5
217
100
AcDbEntity
8
0
100
AcDbCircle
10
44.500000000000021
20
28.325000000000017
30
0
40
0.49999999999998934
210
0
220
0
230
1
100
AcDbArc
50
0
51
90.00000000000081
0
LINE
5
218
100
AcDbEntity
8
0
100
AcDbLine
10
44.500000000000014
20
28.825000000000006
30
0
11
24
21
28.825000000000006
31
0
0
ARC
5
219
100
AcDbEntity
8
0
100
AcDbCircle
10
24.000000000000004
20
28.325000000000003
30
0
40
0.50000000000000266
210
0
220
0
230
1
100
AcDbArc
50
90.000000000000398
51
270
0
LINE
5
220
100
AcDbEntity
8
0
100
AcDbLine
10
30.500000000000004
20
27.825000000000006
30
0
11
24.000000000000004
21
27.825000000000003
31
0
0
ARC
5
221
100
AcDbEntity
8
0
100
AcDbCircle
10
30.500000000000004
20
27.32500000000001
30
0
40
0.49999999999999822
210
0
220
-0
230
1
100
AcDbArc
50
0
51
90
0
LINE
5
222
100
AcDbEntity
8
0
100
AcDbLine
10
31
20
27.32500000000001
30
0
11
31
21
-10.499999999999986
31
0
0
ARC
5
223
100
AcDbEntity
8
0
100
AcDbCircle
10
30.500000000000004
20
-10.499999999999986
30
0
40
0.49999999999999822
210
-0
220
0
230
1
100
AcDbArc
50
-90
51
0
0
ARC
5
224
100
AcDbEntity
8
0
100
AcDbCircle
10
15.699999999999999
20
-10.499999999999986
30
0
40
0.49999999999999822
210
0
220
0
230
1
100
AcDbArc
50
180
51
270
0
LINE
5
225
100
AcDbEntity
8
0
100
AcDbLine
10
15.199999999999999
20
4.3749999850988512
30
0
11
15.199999999999999
21
-10.499999999999986
31
0
0
ARC
5
226
100
AcDbEntity
8
0
100
AcDbCircle
10
15.700000000000001
20
4.3749999850988512
30
0
40
0.49999999999999989
210
0
220
-0
230
1
100
AcDbArc
50
90
51
180
0
LINE
5
227
100
AcDbEntity
8
0
100
AcDbLine
10
15.700000000000001
20
4.8749999850988504
30
0
11
23.000000000000004
21
4.8749999850988512
31
0
0
ARC
5
228
100
AcDbEntity
8
0
100
AcDbCircle
10
23.000000000000011
20
5.3749999850988424
30
0
40
0.49999999999999156
210
0
220
0
230
1
100
AcDbArc
50
-90.00000000000081
51
1.7075472925031877e-06
0
ARC
5
229
100
AcDbEntity
8
0
100
AcDbCircle
10
23.000000000000004
20
5.3750000000000124
30
0
40
0.49999999999999822
210
0
220
0
230
1
100
AcDbArc
50
0
51
90
0
LINE
5
230
100
AcDbEntity
8
0
100
AcDbLine
10
9.7500000000000036
20
5.8750000000000124
30
0
11
23.000000000000004
21
5.8750000000000107
31
0
0
ARC
5
231
100
AcDbEntity
8
0
100
AcDbCircle
10
9.7500000000000036
20
6.3750000000000124
30
0
40
0.50000000000000044
210
0
220
0
230
1
100
AcDbArc
50
180
51
270
0
LINE
5
232
100
AcDbEntity
8
0
100
AcDbLine
10
9.25
20
8.8749999999999982
30
0
11
9.2500000000000036
21
6.3750000000000124
31
0
0
ARC
5
233
100
AcDbEntity
8
0
100
AcDbCircle
10
8.75
20
8.875
30
0
40
0.50000000000000044
210
-0
220
0
230
1
100
AcDbArc
50
0
51
90
0
LINE
5
234
100
AcDbEntity
8
0
100
AcDbLine
10
8.75
20
9.375
30
0
11
0.50000000000000044
21
9.3749999999999982
31
0
0
ARC
5
235
100
AcDbEntity
8
0
100
AcDbCircle
10
0.50000000000000022
20
8.8749999999999982
30
0
40
0.50000000000000044
210
0
220
-0
230
1
100
AcDbArc
50
89.999999999999972
51
270.00000000000011
0
LINE
5
236
100
AcDbEntity
8
0
100
AcDbLine
10
7
20
8.375
30
0
11
0.50000000000000111
21
8.3749999999999964
31
0
0
ARC
5
237
100
AcDbEntity
8
0
100
AcDbCircle
10
7
20
7.8749999999999982
30
0
40
0.50000000000000044
210
0
220
-0
230
1
100
AcDbArc
50
0
51
90
0
LINE
5
238
100
AcDbEntity
8
0
100
AcDbLine
10
7.5
20
7.8749999999999982
30
0
11
7.5
21
-7.4999999999999876
31
0
0
ARC
5
239
100
AcDbEntity
8
0
100
AcDbCircle
10
7
20
-7.4999999999999893
30
0
40
0.50000000000000044
210
-0
220
0
230
1
100
AcDbArc
50
-90
51
0
0
LINE
5
240
100
AcDbEntity
8
0
100
AcDbLine
10
7
20
-7.9999999999999893
30
0
11
6.3666666666666529
21
-7.9999999999999893
31
0
0
ARC
5
241
100
AcDbEntity
8
0
100
AcDbCircle
10
6.3666666666666529
20
-8.4999999999999947
30
0
40
0.50000000000000488
210
0
220
-0
230
1
100
AcDbArc
50
90
51
269.99999999999949
0
LINE
5
242
100
AcDbEntity
8
0
100
AcDbLine
10
6.3666666666666485
20
-8.9999999999999947
30
0
11
7
21
-8.9999999999999929
31
0
0
ARC
5
243
100
AcDbEntity
8
0
100
AcDbCircle
10
7
20
-9.4999999999999929
30
0
40
0.50000000000000044
210
0
220
-0
230
1
100
AcDbArc
50
0
51
90
0
LINE
5
244
100
AcDbEntity
8
0
100
AcDbLine
10
7.5
20
-9.4999999999999929
30
0
11
7.4999999999999982
21
-29.950000000000003
31
0
0
ARC
5
245
100
AcDbEntity
8
0
100
AcDbCircle
10
6.9999999999999973
20
-29.950000000000003
30
0
40
0.49999999999999822
210
-0
220
0
230
1
100
AcDbArc
50
-90
51
0
0
ARC
5
246
100
AcDbEntity
8
0
100
AcDbCircle
10
-7.799999999999998
20
-29.950000000000003
30
0
40
0.50000000000000044
210
0
220
0
230
1
100
AcDbArc
50
180
51
270
0
LINE
5
247
100
AcDbEntity
8
0
100
AcDbLine
10
-8.2999999999999989
20
-29.950000000000003
30
0
11
-8.3000000000000007
21
-9.5000000000000018
31
0
0
ARC
5
248
100
AcDbEntity
8
0
100
AcDbCircle
10
-7.8000000000000007
20
-9.5000000000000018
30
0
40
0.50000000000000044
210
0
220
-0
230
1
100
AcDbArc
50
90
51
180
0
LINE
5
249
100
AcDbEntity
8
0
100
AcDbLine
10
-7.8000000000000007
20
-9.0000000000000018
30
0
11
-7.1666666666666714
21
-9
31
0
0
ARC
5
250
100
AcDbEntity
8
0
100
AcDbCircle
10
-7.1666666666666714
20
-8.5000000000000036
30
0
40
0.49999999999999711
210
-0
220
0
230
1
100
AcDbArc
50
-90
51
90.000000000000199
0
LINE
5
251
100
AcDbEntity
8
0
100
AcDbLine
10
-7.1666666666666732
20
-8.0000000000000036
30
0
11
-7.8000000000000007
21
-8.0000000000000018
31
0
0
ARC
5
252
100
AcDbEntity
8
0
100
AcDbCircle
10
-7.8000000000000007
20
-7.5
30
0
40
0.50000000000000044
210
0
220
0
230
1
100
AcDbArc
50
180
51
270
0
LINE
5
253
100
AcDbEntity
8
0
100
AcDbLine
10
-8.2999999999999901
20
30.824999985098842
30
0
11
-8.3000000000000007
21
-7.5
31
0
0
ARC
5
254
100
AcDbEntity
8
0
100
AcDbCircle
10
-7.7999999999999892
20
30.824999985098842
30
0
40
0.49999999999999822
210
0
220
-0
230
1
100
AcDbArc
50
90
51
180
0
LINE
5
255
100
AcDbEntity
8
0
100
AcDbLine
10
-7.7999999999999892
20
31.324999985098838
30
0
11
-0.50000000000000044
21
31.324999985098838
31
0
0
ARC
5
256
100
AcDbEntity
8
0
100
AcDbCircle
10
-0.49999999999999478
20
31.824999985098831
30
0
40
0.49999999999999378
210
0
220
0
230
1
100
AcDbArc
50
-90.000000000000654
51
1.4787793334710982e-06
0
ARC
5
257
100
AcDbEntity
8
0
100
AcDbCircle
10
-0.49999999999999956
20
31.825000000000003
30
0
40
0.49999999999999833
210
0
220
0
230
1
100
AcDbArc
50
0
51
90.000000000000128
0
LINE
5
258
100
AcDbEntity
8
0
100
AcDbLine
10
-0.50000000000000067
20
32.325000000000003
30
0
11
-8.8000000000000043
21
32.325000000000003
31
0
0
ARC
5
259
100
AcDbEntity
8
0
100
AcDbCircle
10
-8.7999999999999954
20
31.824999999999996
30
0
40
0.50000000000000266
210
0
220
0
230
1
100
AcDbArc
50
90.000000000001009
51
180
0
LINE
5
260
100
AcDbEntity
8
0
100
AcDbLine
10
-9.3000000000000025
20
31.825000000000003
30
0
11
-9.300000000000006
21
30.575000000000003
31
0
0
ARC
5
261
100
AcDbEntity
8
0
100
AcDbCircle
10
-9.800000000000006
20
30.575000000000003
30
0
40
0.49999999999999822
210
-0
220
0
230
1
100
AcDbArc
50
-90
51
0
0
LINE
5
262
100
AcDbEntity
8
0
100
AcDbLine
10
-9.800000000000006
20
30.075000000000003
30
0
11
-21.500000000000004
21
30.075000000000003
31
0
0
ARC
5
263
100
AcDbEntity
8
0
100
AcDbCircle
10
-21.500000000000004
20
29.575000000000003
30
0
40
0.49999999999999822
210
0
220
-0
230
1
100
AcDbArc
50
90
51
269.9999999999996
0
LINE
5
264
100
AcDbEntity
8
0
100
AcDbLine
10
-14.99999999999998
20
29.075000000000003
30
0
11
-21.500000000000007
21
29.075000000000006
31
0
0
ARC
5
265
100
AcDbEntity
8
0
100
AcDbCircle
10
-14.99999999999998
20
28.575000000000003
30
0
40
0.49999999999999822
210
0
220
-0
230
1
100
AcDbArc
50
0
51
90
0
LINE
5
266
100
AcDbEntity
8
0
100
AcDbLine
10
-14.499999999999982
20
28.575000000000003
30
0
11
-14.500000000000002
21
-9.7499999999999876
31
0
0
ARC
5
267
100
AcDbEntity
8
0
100
AcDbCircle
10
-15.000000000000002
20
-9.7499999999999893
30
0
40
0.50000000000000044
210
-0
220
0
230
1
100
AcDbArc
50
-90
51
0
0
LINE
5
268
100
AcDbEntity
8
0
100
AcDbLine
10
-15.633333333333352
20
-10.249999999999989
30
0
11
-15.000000000000002
21
-10.249999999999989
31
0
0
ARC
5
269
100
AcDbEntity
8
0
100
AcDbCircle
10
-15.633333333333352
20
-10.749999999999982
30
0
40
0.49999999999999156
210
0
220
-0
230
1
100
AcDbArc
50
90
51
270.00000000000102
0
LINE
5
270
100
AcDbEntity
8
0
100
AcDbLine
10
-15
20
-11.249999999999984
30
0
11
-15.633333333333344
21
-11.24999999999998
31
0
0
ARC
5
271
100
AcDbEntity
8
0
100
AcDbCircle
10
-15.000000000000002
20
-11.749999999999986
30
0
40
0.49999999999999822
210
0
220
-0
230
1
100
AcDbArc
50
0
51
89.999999999999801
0
LINE
5
272
100
AcDbEntity
8
0
100
AcDbLine
10
-14.500000000000004
20
-11.749999999999986
30
0
11
-14.500000000000009
21
-32.199999999999996
31
0
0
ARC
5
273
100
AcDbEntity
8
0
100
AcDbCircle
10
-15.000000000000009
20
-32.199999999999996
30
0
40
0.49999999999999822
210
-0
220
0
230
1
100
AcDbArc
50
-90
51
0
0
ARC
5
274
100
AcDbEntity
8
0
100
AcDbCircle
10
-29.800000000000004
20
-32.199999999999996
30
0
40
0.49999999999999822
210
0
220
0
230
1
100
AcDbArc
50
180
51
270
0
LINE
5
275
100
AcDbEntity
8
0
100
AcDbLine
10
-30.300000000000004
20
-32.199999999999996
30
0
11
-30.300000000000004
21
-11.749999999999993
31
0
0
ARC
5
276
100
AcDbEntity
8
0
100
AcDbCircle
10
-29.800000000000004
20
-11.749999999999993
30
0
40
0.49999999999999822
210
0
220
-0
230
1
100
AcDbArc
50
90
51
180
0
LINE
5
277
100
AcDbEntity
8
0
100
AcDbLine
10
-29.800000000000004
20
-11.249999999999996
30
0
11
-29.166666666666675
21
-11.249999999999993
31
0
0
ARC
5
278
100
AcDbEntity
8
0
100
AcDbCircle
10
-29.166666666666675
20
-10.75
30
0
40
0.49999999999999378
210
-0
220
0
230
1
100
AcDbArc
50
-90
51
90.00000000000081
0
LINE
5
279
100
AcDbEntity
8
0
100
AcDbLine
10
-29.166666666666682
20
-10.250000000000002
30
0
11
-29.800000000000008
21
-10.25
31
0
0
ARC
5
280
100
AcDbEntity
8
0
100
AcDbCircle
10
-29.800000000000008
20
-9.7499999999999982
30
0
40
0.50000000000000266
210
0
220
0
230
1
100
AcDbArc
50
180
51
270
0
LINE
5
281
100
AcDbEntity
8
0
100
AcDbLine
10
-30.300000000000011
20
-9.75
30
0
11
-30.300000000000047
21
5.6249999999999964
31
0
0
ARC
5
282
100
AcDbEntity
8
0
100
AcDbCircle
10
-29.800000000000047
20
5.6249999999999956
30
0
40
0.50000000000000044
210
0
220
-0
230
1
100
AcDbArc
50
90
51
180
0
LINE
5
283
100
AcDbEntity
8
0
100
AcDbLine
10
-29.800000000000047
20
6.1249999999999964
30
0
11
-22.511915944264707
21
6.1249999999999964
31
0
0
ARC
5
284
100
AcDbEntity
8
0
100
AcDbCircle
10
-22.511915944264707
20
6.6250000000000311
30
0
40
0.50000000000003486
210
0
220
0
230
1
100
AcDbArc
50
-90
51
89.999999999996334
0
LINE
5
285
100
AcDbEntity
8
0
100
AcDbLine
10
-22.511915944264675
20
7.1250000000000311
30
0
11
-30.800000000000004
21
7.1249999999999947
31
0
0
ARC
5
286
100
AcDbEntity
8
0
100
AcDbCircle
10
-30.800000000000004
20
6.625
30
0
40
0.49999999999999489
210
0
220
-0
230
1
100
AcDbArc
50
90
51
180
0
LINE
5
287
100
AcDbEntity
8
0
100
AcDbLine
10
-31.299999999999997
20
6.6249999999999947
30
0
11
-31.299999999999994
21
-5.3749999999999964
31
0
0
ARC
5
288
100
AcDbEntity
8
0
100
AcDbCircle
10
-31.799999999999994
20
-5.3749999999999964
30
0
40
0.50000000000000044
210
-0
220
0
230
1
100
AcDbArc
50
-90
51
0
0
LINE
5
289
100
AcDbEntity
8
0
100
AcDbLine
10
-31.799999999999994
20
-5.8749999999999964
30
0
11
-43.499999999999929
21
-5.8749999999999964
31
0
0
ARC
5
290
100
AcDbEntity
8
0
100
AcDbCircle
10
-43.499999999999929
20
-6.3749999999999964
30
0
40
0.49999999999999933
210
0
220
-0
230
1
100
AcDbArc
50
90
51
270.00000000000159
0
LINE
5
291
100
AcDbEntity
8
0
100
AcDbLine
10
-37.000000000000007
20
-6.8749999999999991
30
0
11
-43.499999999999915
21
-6.8749999999999964
31
0
0
ARC
5
292
100
AcDbEntity
8
0
100
AcDbCircle
10
-37.000000000000007
20
-7.3749999999999991
30
0
40
0.49999999999999822
210
0
220
-0
230
1
100
AcDbArc
50
0
51
90
0
LINE
5
293
100
AcDbEntity
8
0
100
AcDbLine
10
-36.500000000000007
20
-7.3749999999999982
30
0
11
-36.499999999999993
21
-22.25
31
0
0
ARC
5
294
100
AcDbEntity
8
0
100
AcDbCircle
10
-36.999999999999986
20
-22.25
30
0
40
0.49999999999999822
210
-0
220
0
230
1
100
AcDbArc
50
-90
51
0
0
ARC
5
295
100
AcDbEntity
8
0
100
AcDbCircle
10
-51.799999999999997
20
-22.250000000000018
30
0
40
0.49999999999999822
210
0
220
0
230
1
100
AcDbArc
50
180
51
270
0
LINE
5
296
100
AcDbEntity
8
0
100
AcDbLine
10
-52.299999999999997
20
15.574999985098843
30
0
11
-52.299999999999997
21
-22.250000000000018
31
0
0
ARC
5
297
100
AcDbEntity
8
0
100
AcDbCircle
10
-51.799999999999997
20
15.574999985098843
30
0
40
0.49999999999999822
210
0
220
-0
230
1
100
AcDbArc
50
90
51
180
0
LINE
5
298
100
AcDbEntity
8
0
100
AcDbLine
10
-51.799999999999997
20
16.074999985098842
30
0
11
-44.499999999999972
21
16.074999985098849
31
0
0
ARC
5
299
100
AcDbEntity
8
0
100
AcDbCircle
10
-44.499999999999972
20
16.574999985098845
30
0
40
0.499999999999996
210
0
220
0
230
1
100
AcDbArc
50
-90
51
0
0
ARC
5
300
100
AcDbEntity
8
0
100
AcDbCircle
10
-44.499999999999986
20
16.575000000000056
30
0
40
0.49999999999999845
210
0
220
0
230
1
100
AcDbArc
50
-1.7075472925031877e-06
51
89.99999999999838
0
LINE
5
301
100
AcDbEntity
8
0
100
AcDbLine
10
-44.499999999999972
20
17.07500000000007
30
0
11
-65.000000000000028
21
17.074999999999999
31
0
0
ARC
5
302
100
AcDbEntity
8
0
100
AcDbCircle
10
-65.000000000000028
20
16.575000000000031
30
0
40
0.49999999999996492
210
0
220
-0
230
1
100
AcDbArc
50
90
51
270.00000000000159
0
LINE
5
303
100
AcDbEntity
8
0
100
AcDbLine
10
-58.499999999999972
20
16.075000000000021
30
0
11
-65.000000000000014
21
16.075000000000038
31
0
0
ARC
5
304
100
AcDbEntity
8
0
100
AcDbCircle
10
-58.499999999999972
20
15.575000000000019
30
0
40
0.49999999999999822
210
0
220
-0
230
1
100
AcDbArc
50
0
51
90
0
LINE
5
305
100
AcDbEntity
8
0
100
AcDbLine
10
-57.999999999999972
20
15.575000000000019
30
0
11
-57.999999999999986
21
-22.249999999999996
31
0
0
ARC
5
306
100
AcDbEntity
8
0
100
AcDbCircle
10
-58.499999999999986
20
-22.249999999999996
30
0
40
0.49999999999999822
210
-0
220
0
230
1
100
AcDbArc
50
-90
51
0
0
ARC
5
307
100
AcDbEntity
8
0
100
AcDbCircle
10
-73.300000000000011
20
-22.250000000000007
30
0
40
0.49999999999999822
210
0
220
0
230
1
100
AcDbArc
50
180
51
270
0
LINE
5
308
100
AcDbEntity
8
0
100
AcDbLine
10
-73.800000000000011
20
38.149999999999991
30
0
11
-73.800000000000011
21
-22.250000000000007
31
0
0
ARC
5
309
100
AcDbEntity
8
0
100
AcDbCircle
10
-73.300000000000011
20
38.149999999999991
30
0
40
0.49999999999999822
210
0
220
-0
230
1
100
AcDbArc
50
90
51
180
0
LINE
5
310
100
AcDbEntity
8
0
100
AcDbLine
10
-73.300000000000011
20
38.649999999999991
30
0
11
-72.666666666666671
21
38.649999999999984
31
0
0
ARC
5
311
100
AcDbEntity
8
0
100
AcDbCircle
10
-72.666666666666671
20
39.15000000000002
30
0
40
0.50000000000003375
210
0
220
0
230
1
100
AcDbArc
50
-90
51
89.999999999996746
0
LINE
5
312
100
AcDbEntity
8
0
100
AcDbLine
10
-72.666666666666643
20
39.65000000000002
30
0
11
-73.299999999999997
21
39.65000000000002
31
0
0
ARC
5
313
100
AcDbEntity
8
0
100
AcDbCircle
10
-73.299999999999997
20
40.150000000000013
30
0
40
0.49999999999999822
210
0
220
0
230
1
100
AcDbArc
50
180
51
270
0
LINE
5
314
100
AcDbEntity
8
0
100
AcDbLine
10
-73.800000000000011
20
60.599999999999994
30
0
11
-73.799999999999997
21
40.150000000000013
31
0
0
ARC
5
315
100
AcDbEntity
8
0
100
AcDbCircle
10
-73.300000000000011
20
60.599999999999994
30
0
40
0.50000000000000711
210
0
220
-0
230
1
100
AcDbArc
50
90
51
180
0
ARC
5
316
100
AcDbEntity
8
0
100
AcDbCircle
10
-58.5
20
60.59999999999998
30
0
40
0.50000000000000711
210
0
220
-0
230
1
100
AcDbArc
50
0
51
90
0
LINE
5
317
100
AcDbEntity
8
0
100
AcDbLine
10
-58
20
40.149999999999999
30
0
11
-57.999999999999986
21
60.59999999999998
31
0
0
ARC
5
318
100
AcDbEntity
8
0
100
AcDbCircle
10
-58.5
20
40.149999999999999
30
0
40
0.49999999999999822
210
-0
220
0
230
1
100
AcDbArc
50
-90
51
0
0
LINE
5
319
100
AcDbEntity
8
0
100
AcDbLine
10
-59.133333333333326
20
39.649999999999999
30
0
11
-58.5
21
39.649999999999999
31
0
0
ARC
5
320
100
AcDbEntity
8
0
100
AcDbCircle
10
-59.133333333333326
20
39.149999999999999
30
0
40
0.50000000000000266
210
0
220
-0
230
1
100
AcDbArc
50
90
51
269.9999999999992
0
LINE
5
321
100
AcDbEntity
8
0
100
AcDbLine
10
-58.499999999999986
20
38.649999999999999
30
0
11
-59.133333333333333
21
38.649999999999999
31
0
0
ARC
5
322
100
AcDbEntity
8
0
100
AcDbCircle
10
-58.499999999999986
20
38.149999999999999
30
0
40
0.49999999999999822
210
0
220
-0
230
1
100
AcDbArc
50
0
51
90
0
LINE
5
323
100
AcDbEntity
8
0
100
AcDbLine
10
-57.999999999999986
20
22.774999999999945
30
0
11
-57.999999999999986
21
38.149999999999999
31
0
0
ARC
5
324
100
AcDbEntity
8
0
100
AcDbCircle
10
-58.499999999999986
20
22.774999999999945
30
0
40
0.49999999999999822
210
-0
220
0
230
1
100
AcDbArc
50
-90
51
0
0
LINE
5
325
100
AcDbEntity
8
0
100
AcDbLine
10
-65
20
22.274999999999988
30
0
11
-58.499999999999986
21
22.274999999999949
31
0
0
ARC
5
326
100
AcDbEntity
8
0
100
AcDbCircle
10
-65
20
21.774999999999991
30
0
40
0.49999999999999378
210
0
220
-0
230
1
100
AcDbArc
50
90
51
270.00000000000159
0
LINE
5
327
100
AcDbEntity
8
0
100
AcDbLine
10
-44.499999999999972
20
21.274999999999999
30
0
11
-64.999999999999986
21
21.274999999999995
31
0
0
ARC
5
328
100
AcDbEntity
8
0
100
AcDbCircle
10
-44.499999999999972
20
21.774999999999991
30
0
40
0.49999999999999378
210
0
220
0
230
1
100
AcDbArc
50
-90
51
0
0
ARC
5
329
100
AcDbEntity
8
0
100
AcDbCircle
10
-44.499999999999972
20
21.775000014901167
30
0
40
0.49999999999998956
210
0
220
0
230
1
100
AcDbArc
50
-1.7075472925031877e-06
51
90
0
LINE
5
330
100
AcDbEntity
8
0
100
AcDbLine
10
-44.499999999999972
20
22.275000014901167
30
0
11
-51.799999999999933
21
22.275000014901138
31
0
0
ARC
5
331
100
AcDbEntity
8
0
100
AcDbCircle
10
-51.799999999999933
20
22.775000014901138
30
0
40
0.49999999999999822
210
0
220
0
230
1
100
AcDbArc
50
180
51
270
0
LINE
5
332
100
AcDbEntity
8
0
100
AcDbLine
10
-52.299999999999997
20
38.14999999999997
30
0
11
-52.299999999999933
21
22.775000014901138
31
0
0
ARC
5
333
100
AcDbEntity
8
0
100
AcDbCircle
10
-51.799999999999997
20
38.14999999999997
30
0
40
0.49999999999999822
210
0
220
-0
230
1
100
AcDbArc
50
90
51
180
0
LINE
5
334
100
AcDbEntity
8
0
100
AcDbLine
10
-51.799999999999997
20
38.649999999999963
30
0
11
-51.166666666666615
21
38.649999999999963
31
0
0
ARC
5
335
100
AcDbEntity
8
0
100
AcDbCircle
10
-51.166666666666607
20
39.15000000000002
30
0
40
0.50000000000005596
210
0
220
0
230
1
100
AcDbArc
50
-90.00000000000081
51
89.999999999994301
0
LINE
5
336
100
AcDbEntity
8
0
100
AcDbLine
10
-51.166666666666558
20
39.65000000000002
30
0
11
-51.799999999999997
21
39.650000000000006
31
0
0
ARC
5
337
100
AcDbEntity
8
0
100
AcDbCircle
10
-51.799999999999997
20
40.150000000000006
30
0
40
0.49999999999999822
210
0
220
0
230
1
100
AcDbArc
50
180
51
270
0
LINE
5
338
100
AcDbEntity
8
0
100
AcDbLine
10
-52.299999999999997
20
60.600000000000477
30
0
11
-52.299999999999997
21
40.150000000000006
31
0
0
ARC
5
339
100
AcDbEntity
8
0
100
AcDbCircle
10
-51.799999999999997
20
60.600000000000477
30
0
40
0.50000000000000711
210
0
220
-0
230
1
100
AcDbArc
50
89.99999999999838
51
180
0
ARC
5
340
100
AcDbEntity
8
0
100
AcDbCircle
10
-36.999999999999993
20
60.600000000000058
30
0
40
0.49999999999999822
210
0
220
-0
230
1
100
AcDbArc
50
0
51
89.99999999999838
0
LINE
5
341
100
AcDbEntity
8
0
100
AcDbLine
10
-36.499999999999993
20
40.150000000000006
30
0
11
-36.499999999999993
21
60.600000000000058
31
0
0
ARC
5
342
100
AcDbEntity
8
0
100
AcDbCircle
10
-36.999999999999986
20
40.150000000000006
30
0
40
0.49999999999999822
210
-0
220
0
230
1
100
AcDbArc
50
-90
51
0
0
LINE
5
343
100
AcDbEntity
8
0
100
AcDbLine
10
-37.633333333333312
20
39.650000000000006
30
0
11
-36.999999999999986
21
39.650000000000006
31
0
0
ARC
5
344
100
AcDbEntity
8
0
100
AcDbCircle
10
-37.633333333333319
20
39.149999999999984
30
0
40
0.50000000000002043
210
0
220
-0
230
1
100
AcDbArc
50
89.99999999999919
51
269.99999999999756
0
LINE
5
345
100
AcDbEntity
8
0
100
AcDbLine
10
-36.999999999999986
20
38.649999999999984
30
0
11
-37.63333333333334
21
38.649999999999977
31
0
0
ARC
5
346
100
AcDbEntity
8
0
100
AcDbCircle
10
-36.999999999999986
20
38.149999999999984
30
0
40
0.49999999999999822
210
0
220
-0
230
1
100
AcDbArc
50
0
51
90
0
LINE
5
347
100
AcDbEntity
8
0
100
AcDbLine
10
-36.500000000000036
20
-0.17500000000000104
30
0
11
-36.499999999999993
21
38.149999999999984
31
0
0
ARC
5
348
100
AcDbEntity
8
0
100
AcDbCircle
10
-37.000000000000036
20
-0.17500000000000049
30
0
40
0.50000000000000011
210
-0
220
0
230
1
100
AcDbArc
50
270
51
360
0
LINE
5
349
100
AcDbEntity
8
0
100
AcDbLine
10
-43.5
20
-0.6749999999999996
30
0
11
-37.000000000000036
21
-0.6750000000000006
31
0
0
ARC
5
350
100
AcDbEntity
8
0
100
AcDbCircle
10
-43.500000000000007
20
-1.1749999999999996
30
0
40
0.49999999999999989
210
0
220
-0
230
1
100
AcDbArc
50
89.99999999999919
51
270.0000000000008
0
LINE
5
351
100
AcDbEntity
8
0
100
AcDbLine
10
-43.5
20
-1.6750000000000018
30
0
11
-36
21
-1.6749999999999998
31
0
0
ARC
5
352
100
AcDbEntity
8
0
100
AcDbCircle
10
-36
20
-1.1750000000000003
30
0
40
0.49999999999999944
210
0
220
0
230
1
100
AcDbArc
50
-90
51
0
0
LINE
5
353
100
AcDbEntity
8
0
100
AcDbLine
10
-35.499999999999993
20
10.825000000000006
30
0
11
-35.5
21
-1.1749999999999992
31
0
0
ARC
5
354
100
AcDbEntity
8
0
100
AcDbCircle
10
-34.999999999999993
20
10.825000000000006
30
0
40
0.49999999999999822
210
0
220
-0
230
1
100
AcDbArc
50
90
51
180
0
LINE
5
355
100
AcDbEntity
8
0
100
AcDbLine
10
-22.489200497905209
20
11.324999999999999
30
0
11
-34.999999999999993
21
11.325000000000005
31
0
0
ARC
5
356
100
AcDbEntity
8
0
100
AcDbCircle
10
-22.489200497905216
20
11.824999999999999
30
0
40
0.50000000000000044
210
-0
220
0
230
1
100
AcDbArc
50
-89.99999999999919
51
90.00000000000081
0
LINE
5
357
100
AcDbEntity
8
0
100
AcDbLine
10
-29.800000000000001
20
12.324999999999999
30
0
11
-22.489200497905223
21
12.325000000000001
31
0
0
ARC
5
358
100
AcDbEntity
8
0
100
AcDbCircle
10
-29.800000000000001
20
12.824999999999999
30
0
40
0.49999999999999822
210
0
220
0
230
1
100
AcDbArc
50
180
51
270
0
LINE
5
359
100
AcDbEntity
8
0
100
AcDbLine
10
-30.300000000000004
20
51.149999999999984
30
0
11
-30.299999999999997
21
12.824999999999998
31
0
0
ARC
5
360
100
AcDbEntity
8
0
100
AcDbCircle
10
-29.800000000000004
20
51.149999999999984
30
0
40
0.49999999999999822
210
0
220
-0
230
1
100
AcDbArc
50
90
51
180
0
LINE
5
361
100
AcDbEntity
8
0
100
AcDbLine
10
-29.800000000000004
20
51.649999999999984
30
0
11
-29.166666666666657
21
51.649999999999991
31
0
0
ARC
5
362
100
AcDbEntity
8
0
100
AcDbCircle
10
-29.166666666666661
20
52.149999999999977
30
0
40
0.49999999999998934
210
-0
220
0
230
1
100
AcDbArc
50
-89.999999999999588
51
90.000000000001634
0
LINE
5
363
100
AcDbEntity
8
0
100
AcDbLine
10
-29.166666666666675
20
52.649999999999991
30
0
11
-29.800000000000004
21
52.649999999999977
31
0
0
ARC
5
364
100
AcDbEntity
8
0
100
AcDbCircle
10
-29.800000000000004
20
53.149999999999977
30
0
40
0.49999999999999822
210
0
220
0
230
1
100
AcDbArc
50
180
51
270
0
LINE
5
365
100
AcDbEntity
8
0
100
AcDbLine
10
-30.300000000000004
20
73.600000000000009
30
0
11
-30.300000000000004
21
53.149999999999977
31
0
0
ARC
5
366
100
AcDbEntity
8
0
100
AcDbCircle
10
-29.800000000000004
20
73.600000000000009
30
0
40
0.49999999999999822
210
0
220
-0
230
1
100
AcDbArc
50
90
51
180
0
ARC
5
367
100
AcDbEntity
8
0
100
AcDbCircle
10
-15.000000000000002
20
73.600000000000009
30
0
40
0.49999999999999822
210
0
220
-0
230
1
100
AcDbArc
50
0
51
90
0
LINE
5
368
100
AcDbEntity
8
0
100
AcDbLine
10
-14.500000000000002
20
53.149999999999977
30
0
11
-14.500000000000004
21
73.600000000000009
31
0
0
ARC
5
369
100
AcDbEntity
8
0
100
AcDbCircle
10
-15.000000000000002
20
53.149999999999977
30
0
40
0.49999999999999822
210
-0
220
0
230
1
100
AcDbArc
50
-90
51
0
0
LINE
5
370
100
AcDbEntity
8
0
100
AcDbLine
10
-15.633333333333294
20
52.64999999999997
30
0
11
-15.000000000000002
21
52.649999999999977
31
0
0
ARC
5
371
100
AcDbEntity
8
0
100
AcDbCircle
10
-15.633333333333301
20
52.149999999999999
30
0
40
0.49999999999997158
210
0
220
-0
230
1
100
AcDbArc
50
89.99999999999919
51
270.00000000000205
0
LINE
5
372
100
AcDbEntity
8
0
100
AcDbLine
10
-15
20
51.649999999999991
30
0
11
-15.633333333333283
21
51.649999999999999
31
0
0
ARC
5
373
100
AcDbEntity
8
0
100
AcDbCircle
10
-15
20
51.149999999999991
30
0
40
0.49999999999999822
210
0
220
-0
230
1
100
AcDbArc
50
0
51
90
0
LINE
5
374
100
AcDbEntity
8
0
100
AcDbLine
10
-14.500000000000002
20
35.774999999999999
30
0
11
-14.500000000000002
21
51.149999999999991
31
0
0
ARC
5
375
100
AcDbEntity
8
0
100
AcDbCircle
10
-15.000000000000002
20
35.774999999999999
30
0
40
0.50000000000000266
210
-0
220
0
230
1
100
AcDbArc
50
-90
51
0
0
LINE
5
376
100
AcDbEntity
8
0
100
AcDbLine
10
-21.500000000000004
20
35.275000000000006
30
0
11
-15.000000000000002
21
35.274999999999999
31
0
0
ARC
5
377
100
AcDbEntity
8
0
100
AcDbCircle
10
-21.5
20
34.774999999999935
30
0
40
0.50000000000006928
210
0
220
0
230
1
100
AcDbArc
50
90.000000000000398
51
269.99999999999307
0
LINE
5
378
100
AcDbEntity
8
0
100
AcDbLine
10
-21.50000000000006
20
34.274999999999928
30
0
11
-14
21
34.275000000000006
31
0
0
ARC
5
379
100
AcDbEntity
8
0
100
AcDbCircle
10
-14.000000000000011
20
34.775000000000006
30
0
40
0.50000000000000266
210
0
220
0
230
1
100
AcDbArc
50
270.00000000000119
51
360
0
LINE
5
380
100
AcDbEntity
8
0
100
AcDbLine
10
-13.500000000000004
20
34.774999999999999
30
0
11
-13.500000000000004
21
36.024999999999999
31
0
0
ARC
5
381
100
AcDbEntity
8
0
100
AcDbCircle
10
-13.000000000000004
20
36.024999999999999
30
0
40
0.49999999999999822
210
0
220
-0
230
1
100
AcDbArc
50
90
51
180
0
LINE
5
382
100
AcDbEntity
8
0
100
AcDbLine
10
-0.5
20
36.524999999999999
30
0
11
-13.000000000000004
21
36.524999999999999
31
0
0
ARC
5
383
100
AcDbEntity
8
0
100
AcDbCircle
10
-0.49999999999999445
20
37.024999999999991
30
0
40
0.49999999999999378
210
0
220
0
230
1
100
AcDbArc
50
-90.000000000000611
51
1.7075472925031877e-06
0
ARC
5
384
100
AcDbEntity
8
0
100
AcDbCircle
10
-0.49999999999999933
20
37.02500001490116
30
0
40
0.49999999999999845
210
0
220
0
230
1
100
AcDbArc
50
0
51
90.000000000000099
0
LINE
5
385
100
AcDbEntity
8
0
100
AcDbLine
10
-0.50000000000000011
20
37.52500001490116
30
0
11
-7.8000000000000069
21
37.52500001490116
31
0
0
ARC
5
386
100
AcDbEntity
8
0
100
AcDbCircle
10
-7.8000000000000069
20
38.02500001490116
30
0
40
0.50000000000000044
210
0
220
0
230
1
100
AcDbArc
50
180
51
270
0
LINE
5
387
100
AcDbEntity
8
0
100
AcDbLine
10
-8.3000000000000078
20
38.02500001490116
30
0
11
-8.3000000000000007
21
53.399999999999999
31
0
0
ARC
5
388
100
AcDbEntity
8
0
100
AcDbCircle
10
-7.8000000000000007
20
53.399999999999999
30
0
40
0.49999999999999822
210
0
220
-0
230
1
100
AcDbArc
50
90
51
180
0
LINE
5
389
100
AcDbEntity
8
0
100
AcDbLine
10
-7.8000000000000007
20
53.899999999999999
30
0
11
-7.1666666666666661
21
53.899999999999999
31
0
0
ARC
5
390
100
AcDbEntity
8
0
100
AcDbCircle
10
-7.1666666666666679
20
54.399999999999991
30
0
40
0.49999999999999822
210
0
220
0
230
1
100
AcDbArc
50
-89.999999999999801
51
90.000000000000199
0
LINE
5
391
100
AcDbEntity
8
0
100
AcDbLine
10
-7.1666666666666696
20
54.899999999999991
30
0
11
-7.8000000000000007
21
54.900000000000006
31
0
0
ARC
5
392
100
AcDbEntity
8
0
100
AcDbCircle
10
-7.8000000000000007
20
55.399999999999999
30
0
40
0.50000000000000044
210
0
220
0
230
1
100
AcDbArc
50
180
51
270
0
LINE
5
393
100
AcDbEntity
8
0
100
AcDbLine
10
-8.3000000000000043
20
75.849999999999994
30
0
11
-8.3000000000000007
21
55.399999999999999
31
0
0
ARC
5
394
100
AcDbEntity
8
0
100
AcDbCircle
10
-7.8000000000000034
20
75.849999999999994
30
0
40
0.49999999999999822
210
0
220
-0
230
1
100
AcDbArc
50
90
51
180
0
ARC
5
395
100
AcDbEntity
8
0
100
AcDbCircle
10
7.0000000000000009
20
75.849999999999994
30
0
40
0.50000000000000044
210
0
220
-0
230
1
100
AcDbArc
50
0
51
90
0
LINE
5
396
100
AcDbEntity
8
0
100
AcDbLine
10
7.5
20
55.399999999999977
30
0
11
7.5000000000000009
21
75.849999999999994
31
0
0
ARC
5
397
100
AcDbEntity
8
0
100
AcDbCircle
10
7
20
55.399999999999977
30
0
40
0.49999999999999822
210
-0
220
0
230
1
100
AcDbArc
50
-90
51
0
0
LINE
5
398
100
AcDbEntity
8
0
100
AcDbLine
10
6.3666666666666751
20
54.899999999999977
30
0
11
7
21
54.899999999999977
31
0
0
ARC
5
399
100
AcDbEntity
8
0
100
AcDbCircle
10
6.3666666666666716
20
54.399999999999991
30
0
40
0.49999999999998046
210
0
220
-0
230
1
100
AcDbArc
50
89.999999999999588
51
270.00000000000171
0
LINE
5
400
100
AcDbEntity
8
0
100
AcDbLine
10
7.0000000000000009
20
53.899999999999991
30
0
11
6.3666666666666867
21
53.899999999999999
31
0
0
ARC
5
401
100
AcDbEntity
8
0
100
AcDbCircle
10
7.0000000000000009
20
53.399999999999991
30
0
40
0.50000000000000044
210
0
220
-0
230
1
100
AcDbArc
50
0
51
90
0
LINE
5
402
100
AcDbEntity
8
0
100
AcDbLine
10
7.5000000000000009
20
53.399999999999991
30
0
11
7.5000000000000169
21
15.074999999999999
31
0
0
ARC
5
403
100
AcDbEntity
8
0
100
AcDbCircle
10
7.000000000000016
20
15.074999999999999
30
0
40
0.50000000000000044
210
-0
220
0
230
1
100
AcDbArc
50
-90
51
0
0
LINE
5
404
100
AcDbEntity
8
0
100
AcDbLine
10
0.49999999999999989
20
14.574999999999999
30
0
11
7.000000000000016
21
14.574999999999998
31
0
0
ARC
5
405
100
AcDbEntity
8
0
100
AcDbCircle
10
0.50000000000000089
20
14.074999999999996
30
0
40
0.50000000000000488
210
0
220
0
230
1
100
AcDbArc
50
90.000000000000114
51
269.99999999999955
0
LINE
5
406
100
AcDbEntity
8
0
100
AcDbLine
10
12.949999999999999
20
13.575000000000003
30
0
11
0.49999999999999684
21
13.574999999999996
31
0
0
ARC
5
407
100
AcDbEntity
8
0
100
AcDbCircle
10
12.949999999999999
20
13.075000000000003
30
0
40
0.49999999999999822
210
0
220
-0
230
1
100
AcDbArc
50
0
51
90
0
LINE
5
408
100
AcDbEntity
8
0
100
AcDbLine
10
13.449999999999999
20
10.575000000000014
30
0
11
13.449999999999998
21
13.075000000000003
31
0
0
ARC
5
409
100
AcDbEntity
8
0
100
AcDbCircle
10
13.949999999999998
20
10.575000000000012
30
0
40
0.49999999999999822
210
0
220
0
230
1
100
AcDbArc
50
180
51
270.00000000000023
0
LINE
5
410
100
AcDbEntity
8
0
100
AcDbLine
10
23.000000000000004
20
10.075000000000014
30
0
11
13.949999999999999
21
10.075000000000017
31
0
0
ARC
5
411
100
AcDbEntity
8
0
100
AcDbCircle
10
23.000000000000007
20
10.575000000000014
30
0
40
0.50000000000000044
210
0
220
0
230
1
100
AcDbArc
50
-90.000000000000398
51
1.7075472925031877e-06
0
ARC
5
412
100
AcDbEntity
8
0
100
AcDbCircle
10
23.000000000000004
20
10.575000014901176
30
0
40
0.50000000000000266
210
0
220
0
230
1
100
AcDbArc
50
0
51
89.999999999999588
0
LINE
5
413
100
AcDbEntity
8
0
100
AcDbLine
10
23.000000000000007
20
11.075000014901175
30
0
11
15.699999999999983
21
11.075000014901175
31
0
0
ARC
5
414
100
AcDbEntity
8
0
100
AcDbCircle
10
15.699999999999983
20
11.575000014901175
30
0
40
0.49999999999999822
210
0
220
0
230
1
100
AcDbArc
50
180
51
270
0
LINE
5
415
100
AcDbEntity
8
0
100
AcDbLine
10
15.199999999999985
20
11.575000014901175
30
0
11
15.199999999999999
21
49.899999999999984
31
0
0
ARC
5
416
100
AcDbEntity
8
0
100
AcDbCircle
10
15.700000000000001
20
49.899999999999984
30
0
40
0.49999999999999822
210
0
220
-0
230
1
100
AcDbArc
50
90
51
180
0
LINE
5
417
100
AcDbEntity
8
0
100
AcDbLine
10
15.700000000000001
20
50.399999999999984
30
0
11
16.333333333333332
21
50.399999999999984
31
0
0
ARC
5
418
100
AcDbEntity
8
0
100
AcDbCircle
10
16.333333333333332
20
50.899999999999977
30
0
40
0.49999999999999822
210
0
220
0
230
1
100
AcDbArc
50
-90
51
90.000000000000398
0
LINE
5
419
100
AcDbEntity
8
0
100
AcDbLine
10
16.333333333333329
20
51.399999999999977
30
0
11
15.699999999999999
21
51.399999999999991
31
0
0
ARC
5
420
100
AcDbEntity
8
0
100
AcDbCircle
10
15.699999999999999
20
51.899999999999984
30
0
40
0.49999999999999822
210
0
220
0
230
1
100
AcDbArc
50
180
51
270
0
LINE
5
421
100
AcDbEntity
8
0
100
AcDbLine
10
15.199999999999998
20
72.349999999999994
30
0
11
15.199999999999999
21
51.899999999999984
31
0
0
ARC
5
422
100
AcDbEntity
8
0
100
AcDbCircle
10
15.699999999999999
20
72.349999999999994
30
0
40
0.49999999999999822
210
0
220
-0
230
1
100
AcDbArc
50
90
51
180
0
ARC
5
423
100
AcDbEntity
8
0
100
AcDbCircle
10
30.500000000000011
20
72.350000000000009
30
0
40
0.49999999999999822
210
0
220
-0
230
1
100
AcDbArc
50
0
51
90
0
LINE
5
424
100
AcDbEntity
8
0
100
AcDbLine
10
31
20
51.899999999999991
30
0
11
31.000000000000011
21
72.350000000000009
31
0
0
ARC
5
425
100
AcDbEntity
8
0
100
AcDbCircle
10
30.500000000000004
20
51.899999999999991
30
0
40
0.49999999999999822
210
-0
220
0
230
1
100
AcDbArc
50
-90
51
0
0
LINE
5
426
100
AcDbEntity
8
0
100
AcDbLine
10
29.866666666666664
20
51.399999999999999
30
0
11
30.500000000000004
21
51.399999999999999
31
0
0
ARC
5
427
100
AcDbEntity
8
0
100
AcDbCircle
10
29.866666666666664
20
50.90000000000002
30
0
40
0.49999999999998046
210
0
220
-0
230
1
100
AcDbArc
50
90
51
270.00000000000205
0
LINE
5
428
100
AcDbEntity
8
0
100
AcDbLine
10
30.500000000000004
20
50.40000000000002
30
0
11
29.866666666666681
21
50.40000000000002
31
0
0
ARC
5
429
100
AcDbEntity
8
0
100
AcDbCircle
10
30.500000000000004
20
49.90000000000002
30
0
40
0.49999999999999822
210
0
220
-0
230
1
100
AcDbArc
50
0
51
90
0
LINE
5
430
100
AcDbEntity
8
0
100
AcDbLine
10
31
20
49.90000000000002
30
0
11
31.000000000000021
21
34.525000000000006
31
0
0
ARC
5
431
100
AcDbEntity
8
0
100
AcDbCircle
10
30.500000000000025
20
34.525000000000006
30
0
40
0.49999999999999822
210
-0
220
0
230
1
100
AcDbArc
50
-90
51
0
0
LINE
5
432
100
AcDbEntity
8
0
100
AcDbLine
10
24
20
34.025000000000006
30
0
11
30.500000000000025
21
34.025000000000006
31
0
0
ARC
5
433
100
AcDbEntity
8
0
100
AcDbCircle
10
24.000000000000004
20
33.52500000000007
30
0
40
0.49999999999993605
210
0
220
0
230
1
100
AcDbArc
50
90.000000000000398
51
270.00000000000693
0
LINE
5
434
100
AcDbEntity
8
0
100
AcDbLine
10
44.500000000000014
20
33.024999999999991
30
0
11
24.000000000000064
21
33.025000000000077
31
0
0
ARC
5
435
100
AcDbEntity
8
0
100
AcDbCircle
10
44.500000000000014
20
33.524999999999984
30
0
40
0.49999999999999378
210
0
220
0
230
1
100
AcDbArc
50
-90
51
1.7075472925031877e-06
0
ARC
5
436
100
AcDbEntity
8
0
100
AcDbCircle
10
44.500000000000014
20
33.52500001490116
30
0
40
0.49999999999998934
210
0
220
0
230
1
100
AcDbArc
50
0
51
90
0
LINE
5
437
100
AcDbEntity
8
0
100
AcDbLine
10
44.500000000000014
20
34.02500001490116
30
0
11
37.199999999999982
21
34.025000014901167
31
0
0
ARC
5
438
100
AcDbEntity
8
0
100
AcDbCircle
10
37.199999999999982
20
34.52500001490116
30
0
40
0.49999999999999822
210
0
220
0
230
1
100
AcDbArc
50
180
51
270
0
LINE
5
439
100
AcDbEntity
8
0
100
AcDbLine
10
36.699999999999989
20
34.52500001490116
30
0
11
36.70000000000001
21
49.899999999999984
31
0
0
ARC
5
440
100
AcDbEntity
8
0
100
AcDbCircle
10
37.200000000000003
20
49.899999999999984
30
0
40
0.49999999999999822
210
0
220
-0
230
1
100
AcDbArc
50
90
51
180
0
LINE
5
441
100
AcDbEntity
8
0
100
AcDbLine
10
37.200000000000003
20
50.399999999999984
30
0
11
37.833333333333364
21
50.399999999999991
31
0
0
ARC
5
442
100
AcDbEntity
8
0
100
AcDbCircle
10
37.833333333333357
20
50.899999999999999
30
0
40
0.50000000000000711
210
0
220
0
230
1
100
AcDbArc
50
-89.99999999999919
51
89.99999999999919
0
CIRCLE
5
443
100
AcDbEntity
8
0
100
AcDbCircle
10
-22.899999999999991
20
75.100000000000037
30
0
40
0.75000000000000178
210
0
220
-0
230
1
0
CIRCLE
5
444
100
AcDbEntity
8
0
100
AcDbCircle
10
-26.114666796424633
20
75.100000000000037
30
0
40
0.75000000000000178
210
0
220
-0
230
1
0
CIRCLE
5
445
100
AcDbEntity
8
0
100
AcDbCircle
10
-19.68533320357535
20
75.100000000000037
30
0
40
0.75000000000000178
210
0
220
-0
230
1
0
ARC
5
446
100
AcDbEntity
8
0
100
AcDbCircle
10
-16.935333203575365
20
75.100000000000023
30
0
40
0.99999999999999645
210
0
220
-0
230
1
100
AcDbArc
50
89.999999999999801
51
270
0
ARC
5
447
100
AcDbEntity
8
0
100
AcDbCircle
10
-28.86466679642464
20
75.100000000000037
30
0
40
0.99999999999999645
210
0
220
0
230
1
100
AcDbArc
50
-90
51
90
0
CIRCLE
5
448
100
AcDbEntity
8
0
100
AcDbCircle
10
-0.39999999999999175
20
77.34999999999998
30
0
40
0.75000000000000178
210
0
220
-0
230
1
0
CIRCLE
5
449
100
AcDbEntity
8
0
100
AcDbCircle
10
-3.6146667964246326
20
77.34999999999998
30
0
40
0.75000000000000178
210
0
220
-0
230
1
0
CIRCLE
5
450
100
AcDbEntity
8
0
100
AcDbCircle
10
2.8146667964246497
20
77.34999999999998
30
0
40
0.75000000000000178
210
0
220
-0
230
1
0
ARC
5
451
100
AcDbEntity
8
0
100
AcDbCircle
10
5.5646667964246355
20
77.34999999999998
30
0
40
1.0000000000000053
210
0
220
-0
230
1
100
AcDbArc
50
89.999999999999801
51
270.00000000000006
0
ARC
5
452
100
AcDbEntity
8
0
100
AcDbCircle
10
-6.3646667964246406
20
77.349999999999966
30
0
40
0.99999999999997868
210
-0
220
0
230
1
100
AcDbArc
50
-89.999999999999943
51
90.000000000000057
0
CIRCLE
5
453
100
AcDbEntity
8
0
100
AcDbCircle
10
23.100000000000016
20
73.850000000000009
30
0
40
0.75000000000000178
210
0
220
-0
230
1
0
CIRCLE
5
454
100
AcDbEntity
8
0
100
AcDbCircle
10
19.885333203575371
20
73.850000000000009
30
0
40
0.75000000000000178
210
0
220
-0
230
1
0
CIRCLE
5
455
100
AcDbEntity
8
0
100
AcDbCircle
10
26.314666796424653
20
73.850000000000009
30
0
40
0.75000000000000178
210
0
220
-0
230
1
0
ARC
5
456
100
AcDbEntity
8
0
100
AcDbCircle
10
29.064666796424639
20
73.849999999999994
30
0
40
0.99999999999999645
210
0
220
-0
230
1
100
AcDbArc
50
89.999999999999588
51
270
0
ARC
5
457
100
AcDbEntity
8
0
100
AcDbCircle
10
17.135333203575364
20
73.850000000000009
30
0
40
0.99999999999999645
210
-0
220
0
230
1
100
AcDbArc
50
-90
51
90
0
CIRCLE
5
458
100
AcDbEntity
8
0
100
AcDbCircle
10
-44.899999999999977
20
62.099999999999078
30
0
40
0.75000000000000178
210
0
220
-0
230
1
0
CIRCLE
5
459
100
AcDbEntity
8
0
100
AcDbCircle
10
-48.114666796424615
20
62.099999999999078
30
0
40
0.75000000000000178
210
0
220
-0
230
1
0
CIRCLE
5
460
100
AcDbEntity
8
0
100
AcDbCircle
10
-41.685333203575333
20
62.099999999999078
30
0
40
0.75000000000000178
210
0
220
-0
230
1
0
ARC
5
461
100
AcDbEntity
8
0
100
AcDbCircle
10
-38.935333203575347
20
62.099999999999071
30
0
40
0.99999999999999645
210
0
220
-0
230
1
100
AcDbArc
50
90
51
270
0
ARC
5
462
100
AcDbEntity
8
0
100
AcDbCircle
10
-50.864666796424629
20
62.099999999999078
30
0
40
0.99999999999999645
210
-0
220
0
230
1
100
AcDbArc
50
-90
51
90
0
CIRCLE
5
463
100
AcDbEntity
8
0
100
AcDbCircle
10
-65.899999999999991
20
62.099999999999966
30
0
40
0.75000000000000178
210
0
220
-0
230
1
0
CIRCLE
5
464
100
AcDbEntity
8
0
100
AcDbCircle
10
-69.114666796424629
20
62.099999999999966
30
0
40
0.75000000000000178
210
0
220
-0
230
1
0
CIRCLE
5
465
100
AcDbEntity
8
0
100
AcDbCircle
10
-62.685333203575347
20
62.099999999999966
30
0
40
0.75000000000000178
210
0
220
-0
230
1
0
ARC
5
466
100
AcDbEntity
8
0
100
AcDbCircle
10
-59.935333203575361
20
62.099999999999952
30
0
40
0.99999999999999645
210
0
220
-0
230
1
100
AcDbArc
50
90
51
270
0
ARC
5
467
100
AcDbEntity
8
0
100
AcDbCircle
10
-71.864666796424643
20
62.099999999999966
30
0
40
0.99999999999999645
210
-0
220
0
230
1
100
AcDbArc
50
-90
51
90
0
CIRCLE
5
468
100
AcDbEntity
8
0
100
AcDbCircle
10
44.600000000000023
20
-12.000000000000014
30
0
40
0.75000000000000178
210
0
220
-0
230
1
0
CIRCLE
5
469
100
AcDbEntity
8
0
100
AcDbCircle
10
41.385333203575385
20
-12.000000000000014
30
0
40
0.75000000000000178
210
0
220
-0
230
1
0
CIRCLE
5
470
100
AcDbEntity
8
0
100
AcDbCircle
10
47.814666796424667
20
-12.000000000000014
30
0
40
0.75000000000000178
210
0
220
-0
230
1
0
ARC
5
471
100
AcDbEntity
8
0
100
AcDbCircle
10
50.564666796424653
20
-12.000000000000025
30
0
40
0.99999999999999645
210
0
220
-0
230
1
100
AcDbArc
50
90
51
270
0
ARC
5
472
100
AcDbEntity
8
0
100
AcDbCircle
10
38.635333203575378
20
-12.000000000000014
30
0
40
0.99999999999999645
210
-0
220
0
230
1
100
AcDbArc
50
-90
51
90
0
CIRCLE
5
473
100
AcDbEntity
8
0
100
AcDbCircle
10
23.100000000000016
20
-11.999999999999995
30
0
40
0.75000000000000178
210
0
220
-0
230
1
0
CIRCLE
5
474
100
AcDbEntity
8
0
100
AcDbCircle
10
19.885333203575371
20
-11.999999999999995
30
0
40
0.75000000000000178
210
0
220
-0
230
1
0
CIRCLE
5
475
100
AcDbEntity
8
0
100
AcDbCircle
10
26.314666796424653
20
-11.999999999999995
30
0
40
0.75000000000000178
210
0
220
-0
230
1
0
ARC
5
476
100
AcDbEntity
8
0
100
AcDbCircle
10
29.064666796424639
20
-12.000000000000004
30
0
40
0.99999999999999645
210
0
220
-0
230
1
100
AcDbArc
50
89.999999999999588
51
270
0
ARC
5
477
100
AcDbEntity
8
0
100
AcDbCircle
10
17.135333203575364
20
-11.999999999999995
30
0
40
0.99999999999999645
210
-0
220
0
230
1
100
AcDbArc
50
-90
51
90
0
CIRCLE
5
478
100
AcDbEntity
8
0
100
AcDbCircle
10
-0.89999999999998637
20
-31.449999999999989
30
0
40
0.75000000000000178
210
0
220
-0
230
1
0
CIRCLE
5
479
100
AcDbEntity
8
0
100
AcDbCircle
10
-4.1146667964246273
20
-31.449999999999989
30
0
40
0.75000000000000178
210
0
220
-0
230
1
0
CIRCLE
5
480
100
AcDbEntity
8
0
100
AcDbCircle
10
2.314666796424655
20
-31.449999999999989
30
0
40
0.75000000000000178
210
0
220
-0
230
1
0
ARC
5
481
100
AcDbEntity
8
0
100
AcDbCircle
10
5.0646667964246408
20
-31.449999999999996
30
0
40
0.99999999999999645
210
0
220
-0
230
1
100
AcDbArc
50
89.999999999999744
51
270
0
ARC
5
482
100
AcDbEntity
8
0
100
AcDbCircle
10
-6.8646667964246353
20
-31.449999999999989
30
0
40
0.99999999999999645
210
-0
220
0
230
1
100
AcDbArc
50
-90
51
90
0
CIRCLE
5
483
100
AcDbEntity
8
0
100
AcDbCircle
10
-22.284168008535751
20
-33.699999999999967
30
0
40
0.75000000000000178
210
0
220
-0
230
1
0
CIRCLE
5
484
100
AcDbEntity
8
0
100
AcDbCircle
10
-25.498834804960392
20
-33.699999999999967
30
0
40
0.75000000000000178
210
0
220
-0
230
1
0
CIRCLE
5
485
100
AcDbEntity
8
0
100
AcDbCircle
10
-19.06950121211111
20
-33.699999999999967
30
0
40
0.75000000000000178
210
0
220
-0
230
1
0
ARC
5
486
100
AcDbEntity
8
0
100
AcDbCircle
10
-16.319501212111124
20
-33.699999999999982
30
0
40
0.99999999999999645
210
0
220
-0
230
1
100
AcDbArc
50
89.999999999999801
51
270
0
ARC
5
487
100
AcDbEntity
8
0
100
AcDbCircle
10
-28.248834804960403
20
-33.699999999999967
30
0
40
0.99999999999999645
210
-0
220
0
230
1
100
AcDbArc
50
-90
51
90
0
CIRCLE
5
488
100
AcDbEntity
8
0
100
AcDbCircle
10
-44.598148372480381
20
-23.749999999999908
30
0
40
0.75000000000000178
210
0
220
-0
230
1
0
CIRCLE
5
489
100
AcDbEntity
8
0
100
AcDbCircle
10
-47.812815168905018
20
-23.749999999999908
30
0
40
0.75000000000000178
210
0
220
-0
230
1
0
CIRCLE
5
490
100
AcDbEntity
8
0
100
AcDbCircle
10
-41.383481576055736
20
-23.749999999999908
30
0
40
0.75000000000000178
210
0
220
-0
230
1
0
ARC
5
491
100
AcDbEntity
8
0
100
AcDbCircle
10
-38.63348157605575
20
-23.749999999999915
30
0
40
0.99999999999999645
210
0
220
-0
230
1
100
AcDbArc
50
90
51
270
0
ARC
5
492
100
AcDbEntity
8
0
100
AcDbCircle
10
-50.562815168905033
20
-23.749999999999908
30
0
40
0.99999999999999645
210
-0
220
0
230
1
100
AcDbArc
50
-90
51
90
0
CIRCLE
5
493
100
AcDbEntity
8
0
100
AcDbCircle
10
-66.356169994007146
20
-23.749999999999901
30
0
40
0.75000000000000178
210
0
220
-0
230
1
0
CIRCLE
5
494
100
AcDbEntity
8
0
100
AcDbCircle
10
-69.570836790431784
20
-23.749999999999901
30
0
40
0.75000000000000178
210
0
220
-0
230
1
0
CIRCLE
5
495
100
AcDbEntity
8
0
100
AcDbCircle
10
-63.141503197582509
20
-23.749999999999901
30
0
40
0.75000000000000178
210
0
220
-0
230
1
0
ARC
5
496
100
AcDbEntity
8
0
100
AcDbCircle
10
-60.391503197582523
20
-23.749999999999911
30
0
40
0.99999999999999645
210
0
220
-0
230
1
100
AcDbArc
50
90
51
270
0
ARC
5
497
100
AcDbEntity
8
0
100
AcDbCircle
10
-72.320836790431798
20
-23.749999999999901
30
0
40
0.99999999999999645
210
-0
220
0
230
1
100
AcDbArc
50
-90
51
90
0
LINE
5
498
100
AcDbEntity
8
0
100
AcDbLine
10
39.135333203575364
20
74.850000000000009
30
0
11
29.064666796424646
21
74.849999999999994
31
0
0
LINE
5
499
100
AcDbEntity
8
0
100
AcDbLine
10
17.135333203575364
20
74.850000000000009
30
0
11
17.135333203575364
21
78.34999999999998
31
0
0
LINE
5
500
100
AcDbEntity
8
0
100
AcDbLine
10
17.135333203575364
20
78.34999999999998
30
0
11
5.564666796424639
21
78.34999999999998
31
0
0
LINE
5
501
100
AcDbEntity
8
0
100
AcDbLine
10
-6.3646667964246415
20
78.349999999999966
30
0
11
-16.935333203575361
21
78.349999999999966
31
0
0
LINE
5
502
100
AcDbEntity
8
0
100
AcDbLine
10
-16.935333203575361
20
78.349999999999966
30
0
11
-16.935333203575361
21
76.100000000000023
31
0
0
LINE
5
503
100
AcDbEntity
8
0
100
AcDbLine
10
-28.86466679642464
20
76.100000000000023
30
0
11
-38.935333203575347
21
76.100000000000023
31
0
0
LINE
5
504
100
AcDbEntity
8
0
100
AcDbLine
10
-38.935333203575347
20
76.100000000000023
30
0
11
-38.935333203575347
21
63.099999999999064
31
0
0
LINE
5
505
100
AcDbEntity
8
0
100
AcDbLine
10
-50.864666796424629
20
63.099999999999071
30
0
11
-59.935333203575361
21
63.099999999999952
31
0
0
LINE
5
506
100
AcDbEntity
8
0
100
AcDbLine
10
38.635333203575378
20
-13.000000000000011
30
0
11
29.064666796424639
21
-13
31
0
0
LINE
5
507
100
AcDbEntity
8
0
100
AcDbLine
10
17.135333203575364
20
-12.999999999999991
30
0
11
17.13533320357535
21
-32.449999999999989
31
0
0
LINE
5
508
100
AcDbEntity
8
0
100
AcDbLine
10
17.13533320357535
20
-32.449999999999989
30
0
11
5.0646667964246408
21
-32.449999999999989
31
0
0
LINE
5
509
100
AcDbEntity
8
0
100
AcDbLine
10
-6.8646667964246353
20
-32.449999999999982
30
0
11
-6.864666796424638
21
-34.699999999999974
31
0
0
LINE
5
510
100
AcDbEntity
8
0
100
AcDbLine
10
-6.864666796424638
20
-34.699999999999974
30
0
11
-16.319501212111124
21
-34.699999999999974
31
0
0
LINE
5
511
100
AcDbEntity
8
0
100
AcDbLine
10
-28.248834804960403
20
-34.699999999999967
30
0
11
-38.63348157605575
21
-34.699999999999967
31
0
0
LINE
5
512
100
AcDbEntity
8
0
100
AcDbLine
10
-38.63348157605575
20
-34.699999999999967
30
0
11
-38.63348157605575
21
-24.749999999999911
31
0
0
LINE
5
513
100
AcDbEntity
8
0
100
AcDbLine
10
-50.562815168905033
20
-24.749999999999904
30
0
11
-60.391503197582523
21
-24.749999999999908
31
0
0
LINE
5
514
100
AcDbEntity
8
0
100
AcDbLine
10
-72.320836790431798
20
-24.749999999999901
30
0
11
-73.800000000000011
21
-24.749999999999901
31
0
0
LINE
5
515
100
AcDbEntity
8
0
100
AcDbLine
10
-73.800000000000011
20
-24.749999999999901
30
0
11
-73.800000000000011
21
-34.699999999999967
31
0
0
LINE
5
516
100
AcDbEntity
8
0
100
AcDbLine
10
-73.800000000000011
20
-34.699999999999967
30
0
11
-73.800000000000011
21
-44.69999999999996
31
0
0
LINE
5
517
100
AcDbEntity
8
0
100
AcDbLine
10
52.500000000000007
20
-44.69999999999996
30
0
11
-73.800000000000011
21
-44.69999999999996
31
0
0
LINE
5
518
100
AcDbEntity
8
0
100
AcDbLine
10
51.064666796424646
20
74.849999999999994
30
0
11
52.500000000000014
21
74.849999999999994
31
0
0
LINE
5
519
100
AcDbEntity
8
0
100
AcDbLine
10
50.564666796424653
20
-13.000000000000021
30
0
11
52.500000000000007
21
-13.000000000000021
31
0
0
LINE
5
520
100
AcDbEntity
8
0
100
AcDbLine
10
52.500000000000007
20
-13.000000000000021
30
0
11
52.500000000000007
21
-44.69999999999996
31
0
0
LINE
5
521
100
AcDbEntity
8
0
100
AcDbLine
10
52.500000000000014
20
74.849999999999994
30
0
11
52.500000000000014
21
78.34999999999998
31
0
0
LINE
5
522
100
AcDbEntity
8
0
100
AcDbLine
10
52.500000000000014
20
78.34999999999998
30
0
11
52.500000000000014
21
88.349999999999966
31
0
0
LINE
5
523
100
AcDbEntity
8
0
100
AcDbLine
10
52.500000000000014
20
88.349999999999966
30
0
11
-73.800000000000011
21
88.349999999999923
31
0
0
LINE
5
524
100
AcDbEntity
8
0
100
AcDbLine
10
-73.800000000000011
20
88.349999999999923
30
0
11
-73.800000000000026
21
63.099999999999959
31
0
0
LINE
5
525
100
AcDbEntity
8
0
100
AcDbLine
10
-73.800000000000026
20
63.099999999999959
30
0
11
-71.864666796424643
21
63.099999999999959
31
0
0
LINE
5
526
100
AcDbEntity
8
0
100
AcDbLine
10
-73.300000000000011
20
61.100000000000001
30
0
11
-71.864666796424643
21
61.099999999999966
31
0
0
LINE
5
527
100
AcDbEntity
8
0
100
AcDbLine
10
-59.935333203575361
20
61.099999999999959
30
0
11
-58.5
21
61.09999999999998
31
0
0
LINE
5
528
100
AcDbEntity
8
0
100
AcDbLine
10
-51.799999999999983
20
61.100000000000485
30
0
11
-50.864666796424629
21
61.099999999999078
31
0
0
LINE
5
529
100
AcDbEntity
8
0
100
AcDbLine
10
-38.935333203575347
20
61.099999999999071
30
0
11
-36.999999999999979
21
61.100000000000065
31
0
0
LINE
5
530
100
AcDbEntity
8
0
100
AcDbLine
10
-29.800000000000004
20
74.100000000000009
30
0
11
-28.86466679642464
21
74.100000000000037
31
0
0
LINE
5
531
100
AcDbEntity
8
0
100
AcDbLine
10
-16.935333203575365
20
74.100000000000023
30
0
11
-15.000000000000002
21
74.100000000000009
31
0
0
LINE
5
532
100
AcDbEntity
8
0
100
AcDbLine
10
5.5646667964246364
20
76.34999999999998
30
0
11
7.0000000000000009
21
76.349999999999994
31
0
0
LINE
5
533
100
AcDbEntity
8
0
100
AcDbLine
10
-6.3646667964246397
20
76.34999999999998
30
0
11
-7.8000000000000034
21
76.349999999999994
31
0
0
LINE
5
534
100
AcDbEntity
8
0
100
AcDbLine
10
17.135333203575364
20
72.850000000000009
30
0
11
15.699999999999999
21
72.849999999999994
31
0
0
LINE
5
535
100
AcDbEntity
8
0
100
AcDbLine
10
29.064666796424639
20
72.849999999999994
30
0
11
30.500000000000011
21
72.849999999999994
31
0
0
LINE
5
536
100
AcDbEntity
8
0
100
AcDbLine
10
39.135333203575364
20
72.850000000000009
30
0
11
37.200000000000003
21
72.849999999999994
31
0
0
LINE
5
537
100
AcDbEntity
8
0
100
AcDbLine
10
52.000000000000014
20
72.849999999999994
30
0
11
51.064666796424646
21
72.849999999999994
31
0
0
LINE
5
538
100
AcDbEntity
8
0
100
AcDbLine
10
38.635333203575378
20
-11.000000000000018
30
0
11
37.200000000000003
21
-10.999999999999989
31
0
0
LINE
5
539
100
AcDbEntity
8
0
100
AcDbLine
10
50.564666796424653
20
-11.000000000000028
30
0
11
52.000000000000014
21
-10.999999999999988
31
0
0
LINE
5
540
100
AcDbEntity
8
0
100
AcDbLine
10
29.064666796424646
20
-11.000000000000007
30
0
11
30.500000000000004
21
-10.999999999999982
31
0
0
LINE
5
541
100
AcDbEntity
8
0
100
AcDbLine
10
17.135333203575364
20
-10.999999999999998
30
0
11
15.699999999999999
21
-10.999999999999986
31
0
0
LINE
5
542
100
AcDbEntity
8
0
100
AcDbLine
10
6.9999999999999973
20
-30.449999999999999
30
0
11
5.0646667964246452
21
-30.449999999999999
31
0
0
LINE
5
543
100
AcDbEntity
8
0
100
AcDbLine
10
-6.8646667964246353
20
-30.449999999999989
30
0
11
-7.799999999999998
21
-30.449999999999999
31
0
0
LINE
5
544
100
AcDbEntity
8
0
100
AcDbLine
10
-15.000000000000009
20
-32.699999999999996
30
0
11
-16.31950121211112
21
-32.699999999999982
31
0
0
LINE
5
545
100
AcDbEntity
8
0
100
AcDbLine
10
-28.248834804960403
20
-32.699999999999974
30
0
11
-29.800000000000004
21
-32.699999999999996
31
0
0
LINE
5
546
100
AcDbEntity
8
0
100
AcDbLine
10
-36.999999999999986
20
-22.75
30
0
11
-38.63348157605575
21
-22.749999999999918
31
0
0
LINE
5
547
100
AcDbEntity
8
0
100
AcDbLine
10
-50.562815168905033
20
-22.749999999999911
30
0
11
-51.799999999999997
21
-22.750000000000018
31
0
0
LINE
5
548
100
AcDbEntity
8
0
100
AcDbLine
10
-58.499999999999986
20
-22.749999999999993
30
0
11
-60.391503197582523
21
-22.749999999999915
31
0
0
LINE
5
549
100
AcDbEntity
8
0
100
AcDbLine
10
-72.320836790431798
20
-22.749999999999908
30
0
11
-73.300000000000011
21
-22.750000000000004
31
0
0
ENDSEC
0
SECTION
2
OBJECTS
0
DICTIONARY
5
C
100
AcDbDictionary
3
ACAD_GROUP
350
D
3
ACAD_MLINESTYLE
350
17
0
DICTIONARY
5
D
100
AcDbDictionary
0
DICTIONARY
5
1A
330
C
100
AcDbDictionary
0
DICTIONARY
5
17
100
AcDbDictionary
0
ENDSEC
0
EOF
